<svg width="197" height="76" viewBox="0 0 197 76" fill="none" xmlns="http://www.w3.org/2000/svg">
<path d="M32.0012 36.5718L37.875 30.7583L43.7525 36.5743L47.1712 33.191L37.875 23.9905L28.5825 33.1885L32 36.5718H32.0012ZM29.5862 38.9609L26.1675 35.5776L22.75 38.9609L26.1675 42.3442L29.5862 38.9609ZM32.0012 41.3499L37.8762 47.1634L43.7525 41.3474L47.1725 44.7282L47.1712 44.7307L37.875 53.9312L28.5825 44.7332L28.5775 44.7282L32 41.3499H32.0012ZM49.5825 42.3454L53.0012 38.9621L49.5825 35.5788L46.1637 38.9621L49.5825 42.3454Z" fill="#F3BA2F"/>
<path d="M41.3423 39.462H41.3435L37.8748 36.0288L35.3123 38.5663L35.0173 38.857L34.4098 39.4583L34.4048 39.4633L34.4098 39.4682L37.8748 42.8989L41.3435 39.4657L41.346 39.4633L41.3423 39.462ZM58.3298 31.7473H65.7648C67.6098 31.7473 69.0048 32.2164 69.951 33.1545C70.6823 33.8806 71.0485 34.78 71.0485 35.8542V35.8991C71.0485 36.3519 70.991 36.7536 70.8773 37.1004C70.7648 37.4497 70.6123 37.7616 70.4223 38.0423C70.2373 38.3168 70.0152 38.5645 69.7623 38.7784C69.5123 38.9904 69.2423 39.1726 68.9535 39.3235C69.881 39.6728 70.611 40.1444 71.1435 40.7407C71.676 41.3395 71.9423 42.1666 71.9423 43.2245V43.2707C71.9423 43.9968 71.801 44.6305 71.5185 45.1757C71.2373 45.7196 70.8323 46.1737 70.306 46.5355C69.7798 46.8998 69.1473 47.1717 68.406 47.3526C67.6008 47.5413 66.7757 47.6326 65.9485 47.6246H58.3298V31.7498V31.7473ZM65.021 38.1671C65.7998 38.1671 66.4198 38.0348 66.8773 37.7704C67.336 37.5059 67.5648 37.078 67.5648 36.4892V36.443C67.5648 35.914 67.3648 35.5098 66.9685 35.2304C66.571 34.9497 65.9985 34.81 65.2498 34.81H61.7673V38.1658H65.021V38.1671ZM65.961 44.5631C66.7398 44.5631 67.351 44.4234 67.7935 44.144C68.2373 43.8645 68.4585 43.4291 68.4585 42.8391V42.7941C68.4585 42.2652 68.2523 41.846 67.8398 41.5354C67.4273 41.226 66.7623 41.0713 65.846 41.0713H61.7673V44.5644H65.961V44.5631ZM76.3698 31.7473H79.8985V47.6258H76.3698V31.7473ZM85.2448 31.7473H88.4985L96.0148 41.5242V31.7485H99.4986V47.6258H96.4961L88.7273 37.5333V47.6258H85.2448V31.7473ZM110.184 31.635H113.437L120.312 47.6246H116.622L115.156 44.0641H108.372L106.906 47.6246H103.307L110.182 31.6338L110.184 31.635ZM113.896 40.979L111.764 35.8305L109.634 40.979H113.896ZM124.122 31.7473H127.376L134.892 41.5242V31.7485H138.376V47.6258H135.374L127.605 37.5333V47.6258H124.122V31.7473ZM151.077 47.8965C149.9 47.8965 148.809 47.6844 147.8 47.2615C146.824 46.8599 145.936 46.2708 145.187 45.5275C144.447 44.7842 143.863 43.9012 143.469 42.9301C143.053 41.9151 142.842 40.828 142.85 39.7315V39.6866C142.834 37.5228 143.674 35.4401 145.187 33.8906C145.938 33.1307 146.834 32.5292 147.822 32.1216C148.846 31.6912 149.977 31.4753 151.215 31.4753C151.962 31.4753 152.646 31.5365 153.265 31.6562C153.884 31.7785 154.445 31.9432 154.95 32.1552C155.454 32.3673 155.92 32.6243 156.347 32.9262C156.775 33.2294 157.172 33.5625 157.539 33.9242L155.294 36.4879C154.719 35.9646 154.075 35.5222 153.38 35.173C152.73 34.8549 152.001 34.6965 151.191 34.6965C150.519 34.6965 149.896 34.825 149.324 35.0819C148.751 35.3389 148.259 35.6932 147.846 36.1473C147.434 36.6014 147.112 37.1266 146.882 37.7242C146.652 38.3367 146.536 38.9861 146.54 39.6404V39.6853C146.54 40.3665 146.655 41.0089 146.882 41.614C147.112 42.219 147.429 42.748 147.835 43.2008C148.256 43.6724 148.773 44.0482 149.352 44.3026C149.931 44.557 150.558 44.6842 151.191 44.6754C152.109 44.6754 152.884 44.5095 153.517 44.1764C154.204 43.8068 154.84 43.3497 155.409 42.8166L157.654 45.0621C157.241 45.5 156.812 45.893 156.371 46.2411C155.438 46.9712 154.347 47.4724 153.185 47.7044C152.491 47.8391 151.785 47.9035 151.077 47.8965ZM161.807 31.7473H173.885V34.8561H165.291V38.0772H172.854V41.1836H165.291V44.5182H174V47.6246H161.807V31.7498V31.7473Z" fill="#F3BA2F"/>
</svg>
