<svg width="22" height="15" viewBox="0 0 22 15" fill="none" xmlns="http://www.w3.org/2000/svg">
<path d="M16.8204 12.5844C16.5091 13.0966 16.0954 13.5395 15.605 13.8857C15.1146 14.2318 14.558 14.4737 13.9698 14.5964C13.4165 14.7169 12.8524 14.7822 12.2861 14.7913C11.2319 14.8126 10.1758 14.8748 9.12442 14.7699C7.72751 14.6298 6.49823 14.1268 5.60048 12.9918C5.50086 12.8852 5.41909 12.7633 5.35834 12.6308C5.12287 12.2221 4.93955 11.7856 4.81263 11.3316C4.75303 11.1227 4.79307 10.887 4.62637 10.7023C4.59099 10.6643 4.70087 10.6327 4.76234 10.6346C4.9281 10.6829 4.94021 10.8258 4.97374 10.9622C5.21028 11.9311 5.63774 12.7849 6.42467 13.4382C7.15478 14.0442 8.00782 14.343 8.93071 14.4535C9.82288 14.5677 10.7246 14.5889 11.6211 14.5166C12.0756 14.4767 12.5357 14.5333 12.991 14.4609C13.7081 14.3477 14.4308 14.2864 15.0827 13.8967C15.8303 13.4471 16.4375 12.7989 16.8363 12.0248C16.9639 11.7863 17.0775 11.5404 17.1846 11.2916C17.2833 11.1506 17.3075 10.9808 17.3662 10.8276C17.382 10.7868 17.3904 10.7246 17.4453 10.7348C17.5161 10.7432 17.5077 10.8072 17.5003 10.861C17.421 11.295 17.2796 11.7154 17.0803 12.1092C17.0067 12.2679 16.8922 12.4137 16.8204 12.5844Z" fill="#24150F"/>
<path d="M3.50788 3.94541C3.67178 4.01872 3.72858 4.17928 3.79656 4.31662C4.17465 5.1036 4.75951 5.72353 5.3937 6.30634C5.55854 6.45854 5.59485 6.29799 5.62 6.20054C5.71925 5.86004 5.85768 5.53212 6.03254 5.22332C6.26071 4.79364 6.58015 4.42149 6.83997 4.01687C7.04858 3.68927 7.52258 3.70226 7.66041 3.26516C7.77588 2.89858 8.12606 2.66286 8.42593 2.41693C8.92224 2.01159 9.47377 1.6785 10.064 1.42764C10.1209 1.40786 10.1712 1.3729 10.2094 1.32659C10.2477 1.28028 10.2724 1.22438 10.281 1.165C10.3658 0.803997 10.5231 0.481044 10.8817 0.305645C11.0018 0.242089 11.1405 0.222874 11.2735 0.251403C11.4064 0.279933 11.5249 0.354371 11.6081 0.461555C11.7033 0.644939 11.7779 0.838203 11.8306 1.03786C11.8392 1.09862 11.8711 1.15371 11.9195 1.19159C11.968 1.22948 12.0292 1.24722 12.0905 1.2411C12.358 1.26493 12.6185 1.33959 12.8578 1.46105C12.9221 1.49075 12.9901 1.50374 13.0534 1.52972C13.1497 1.60757 13.2562 1.6719 13.37 1.7209L13.7938 1.99932C13.98 2.14409 13.98 2.15058 13.8422 2.22018C13.5805 2.12738 13.3579 1.95941 13.1233 1.81742C13.036 1.71531 12.9164 1.64591 12.7843 1.62067C12.7639 1.61393 12.7443 1.60522 12.7256 1.59469C12.5546 1.49981 12.3626 1.44878 12.1668 1.4462C12.1446 1.44294 12.1227 1.43734 12.1017 1.4295C11.9918 1.36361 11.8632 1.37196 11.7431 1.34411C11.569 1.24481 11.5727 1.05179 11.5084 0.894947C11.4442 0.738109 11.4069 0.58962 11.229 0.538578C10.9152 0.483823 10.7765 0.707481 10.6284 0.909793C10.5761 1.0042 10.5417 1.10739 10.5269 1.21419C10.4915 1.33391 10.4729 1.46105 10.3788 1.55571C10.0715 1.7506 9.73716 1.89723 9.42053 2.07541C9.13556 2.23596 8.90926 2.48004 8.60566 2.60811C8.29852 2.80304 8.04069 3.06601 7.85225 3.37652C7.79545 3.46376 7.84015 3.52037 7.90534 3.57234C7.95377 3.61224 8.0171 3.62431 8.06925 3.65957C8.1214 3.69484 8.18751 3.73103 8.15399 3.80156C8.12791 3.85725 8.06087 3.84518 8.00779 3.82848C7.8085 3.75794 7.61107 3.72361 7.42109 3.85168C6.88933 4.3324 6.55406 4.95233 6.19925 5.55741C6.05304 5.80613 5.97574 6.08176 5.8761 6.34903C5.74013 6.72025 5.54551 6.78242 5.25867 6.52721C4.54998 5.89893 3.90181 5.21868 3.50788 4.3389C3.46411 4.24052 3.40916 4.14679 3.36446 4.04842C3.33559 3.912 3.40357 3.90272 3.50788 3.94541Z" fill="#291A15"/>
<path d="M16.8205 12.5845C16.8065 12.3822 16.9723 12.2597 17.0486 12.0982C17.2051 11.7368 17.3409 11.3668 17.4556 10.9901C17.4675 10.9108 17.4675 10.8301 17.4556 10.7507C17.3541 10.9437 17.3867 11.173 17.2125 11.314C17.1613 11.2129 17.2125 11.1173 17.2321 11.0208C17.2591 10.8927 17.3122 10.7683 17.3317 10.6403C17.4146 10.0834 17.5664 10.0992 17.9976 10.0231C18.4278 9.96163 18.8502 9.85461 19.2576 9.70387C19.9365 9.42546 20.5847 9.09972 21.0112 8.46216C21.3409 7.96241 21.5131 7.37581 21.5057 6.77777C21.5258 6.21057 21.3543 5.65305 21.0187 5.19454C20.2401 4.24794 19.0062 4.23494 18.0479 4.81033C17.7601 4.97905 17.4956 5.18432 17.261 5.42098C17.1762 5.49429 17.098 5.59545 16.9695 5.54719C16.9221 5.53215 16.8821 5.49974 16.8578 5.4565C16.8334 5.41327 16.8264 5.36243 16.8382 5.31425C16.9033 5.23444 16.9527 5.32817 17.0114 5.33745C16.9183 5.16948 16.7115 5.0479 16.8195 4.81311C16.9453 4.93375 16.9471 5.20846 17.1166 5.21124C17.2414 5.21124 17.3662 5.00707 17.4966 4.90034C18.1485 4.36765 18.8935 4.09481 19.7382 4.20432C20.607 4.31754 21.2421 4.81218 21.5383 5.62236C21.9704 6.80375 21.7879 7.92946 20.9646 8.89741C20.5176 9.4236 19.8909 9.72429 19.2502 9.96558C18.8144 10.1266 18.3612 10.2359 17.8998 10.2913C17.8223 10.2933 17.7485 10.3243 17.6929 10.3781C17.6373 10.432 17.6041 10.5047 17.6 10.5818C17.4945 11.2369 17.2667 11.8664 16.9285 12.4379C16.895 12.4885 16.8589 12.5375 16.8205 12.5845Z" fill="#3F2E25"/>
<path d="M16.8271 4.81303C16.8569 5.03576 16.9342 5.22787 17.1586 5.32809C17.0273 5.55268 16.9565 5.32253 16.8597 5.29376C16.7237 5.25014 16.6995 5.11557 16.6427 5.01535C16.3412 4.46374 15.9291 3.9798 15.432 3.59359C15.3601 3.53461 15.2772 3.49044 15.188 3.46366C15.1248 3.43375 15.0549 3.4206 14.9851 3.42548C14.9152 3.43036 14.8479 3.4531 14.7894 3.4915C14.1487 3.90726 13.4307 4.12257 12.6922 4.28497C12.2974 4.37128 11.8951 4.40284 11.4965 4.46501C11.2404 4.50492 10.9871 4.45481 10.7319 4.43254C10.0698 4.37314 9.40018 4.36201 8.75201 4.19032C8.4866 4.12072 8.20627 4.06596 8.01257 3.83859C8.01257 3.82652 8.02096 3.81446 8.02469 3.8024C8.13271 3.76992 8.13365 3.76992 8.10012 3.73929C8.08776 3.73048 8.07466 3.72272 8.061 3.71609C7.67917 3.48315 7.66149 3.4683 7.95391 3.12864C8.14016 2.91612 8.29847 2.66462 8.59182 2.56439C8.59182 2.68782 8.4838 2.7435 8.41302 2.82053C8.2426 3.00614 8.03213 3.15926 7.92597 3.3987C7.90082 3.52213 8.00048 3.54904 8.07777 3.5908C8.15507 3.63257 8.22863 3.66041 8.30034 3.70217C8.73617 3.9249 9.20646 3.99543 9.68699 4.02791C9.72405 4.03023 9.76084 4.03581 9.7969 4.04462C10.5367 4.15813 11.2886 4.17124 12.032 4.08359C12.7947 3.97872 13.5378 3.81075 14.2363 3.47759C14.6907 3.26042 14.7019 3.21123 14.3853 2.81867C14.2684 2.67451 14.1367 2.54294 13.9923 2.42612C13.9159 2.36394 13.8247 2.31011 13.8228 2.19225C14.0249 2.0948 13.7455 2.07253 13.7911 1.99829C14.1972 2.21174 14.4849 2.54861 14.7447 2.91055C14.8435 3.04883 14.9385 3.15741 15.1284 3.16205C15.2296 3.1703 15.3264 3.20663 15.4078 3.26692C15.9954 3.67711 16.5328 4.13556 16.8271 4.81303Z" fill="#382921"/>
<path d="M3.50802 3.94549C3.44376 3.94549 3.36273 3.93806 3.4065 4.0485C3.37728 4.07442 3.33947 4.08863 3.30035 4.08841C2.88082 3.92714 2.41609 3.92714 1.99656 4.08841C1.96025 4.1014 1.92298 4.10882 1.88666 4.1246C1.6557 4.2304 1.64546 4.27773 1.81681 4.4754C2.1232 4.82806 2.40352 5.19185 2.50037 5.667C2.53178 5.87271 2.54517 6.08076 2.54041 6.28879C2.55353 6.85963 2.63132 7.42716 2.7723 7.9806C3.05168 9.01629 3.67936 9.80884 4.54172 10.4362C4.62739 10.4993 4.76709 10.5216 4.75964 10.6728C4.72891 10.6849 4.65534 10.6895 4.67118 10.7025C4.90213 10.8807 4.80342 11.1666 4.88258 11.3874C5.01295 11.7586 5.11259 12.141 5.33516 12.4742C5.35078 12.4963 5.36159 12.5214 5.36688 12.548C5.37217 12.5745 5.37184 12.6018 5.3659 12.6282C5.11632 12.3331 4.99339 11.9786 4.87605 11.6185C4.79969 11.3772 4.70563 11.1378 4.6898 10.8761C4.68235 10.7517 4.56595 10.7239 4.48865 10.6719C3.68644 10.1497 3.06151 9.39782 2.69595 8.51515C2.53235 8.09769 2.42312 7.66104 2.37094 7.2159C2.31803 6.82536 2.28694 6.43219 2.27781 6.03822C2.27693 5.79051 2.22524 5.54559 2.12596 5.3185C2.02667 5.09141 1.88185 4.88693 1.7004 4.71762C1.24501 4.27959 1.23477 4.10976 1.90901 3.85547C2.36199 3.68247 2.86061 3.66839 3.3227 3.81556C3.39804 3.83547 3.46376 3.88155 3.50802 3.94549Z" fill="#3E2C25"/>
<path d="M2.18097 1.64956C2.12882 1.97159 2.31321 2.22866 2.41286 2.50893C2.49108 2.72702 2.58422 2.94047 2.55907 3.18083C2.56083 3.25064 2.53955 3.3191 2.49853 3.37571C2.47245 3.40448 2.43985 3.43697 2.40074 3.4147C2.38853 3.40626 2.37853 3.39503 2.37157 3.38195C2.3646 3.36887 2.36087 3.35432 2.3607 3.33952C2.42868 2.86344 2.1549 2.47923 2.02079 2.0579C1.94536 1.8231 1.99192 1.58274 1.99005 1.34424C1.9889 1.33306 1.99001 1.32178 1.99328 1.31103C1.99656 1.30029 2.00196 1.2903 2.00915 1.28166C2.01635 1.27302 2.02519 1.26589 2.03519 1.2607C2.04518 1.25551 2.05613 1.25236 2.06736 1.25143C2.14279 1.24401 2.16048 1.29691 2.16048 1.35352C2.17166 1.44911 2.17538 1.54934 2.18097 1.64956Z" fill="#222222"/>
<path d="M1.9937 3.28747C2.00302 3.38955 2.00021 3.45173 1.93689 3.46472C1.87356 3.47772 1.86239 3.41461 1.85028 3.37192C1.73015 2.95709 1.40141 2.72229 1.08012 2.48193C0.893789 2.35426 0.763 2.1609 0.714137 1.94089C0.705755 1.89912 0.6955 1.84158 0.749514 1.82024C0.803528 1.79889 0.82681 1.85736 0.842641 1.89356C0.998164 2.1896 1.25426 2.38263 1.51875 2.5738C1.78323 2.76498 1.96204 3.00441 1.9937 3.28747Z" fill="#252525"/>
<path d="M13.0536 1.53253C12.9093 1.58171 12.805 1.46664 12.6811 1.43045C12.4591 1.34943 12.229 1.29249 11.9947 1.26061C11.9597 1.26227 11.9251 1.25283 11.8958 1.23366C11.8666 1.21448 11.8441 1.18656 11.8318 1.15389C11.7535 0.924662 11.68 0.694509 11.6055 0.464355C11.7535 0.594281 11.7843 0.78082 11.8364 0.955291C11.8886 1.12976 11.9528 1.22257 12.1661 1.2337C12.4837 1.2508 12.7906 1.35414 13.0536 1.53253Z" fill="#382921"/>
<path d="M1.09412 3.26333C1.14961 3.27563 1.20156 3.30043 1.24595 3.33582C1.29034 3.37121 1.326 3.41625 1.35022 3.4675C1.37816 3.5436 1.29808 3.5603 1.24873 3.54545C1.19206 3.53906 1.13843 3.51661 1.09419 3.48074C1.04995 3.44488 1.01697 3.39713 0.999152 3.34314C0.988908 3.29581 1.02893 3.25869 1.09412 3.26333Z" fill="#3B3B3B"/>
<path d="M13.3692 1.71803C13.3037 1.71949 13.2391 1.70228 13.183 1.66842C13.1269 1.63455 13.0817 1.58544 13.0526 1.52686C13.175 1.55762 13.2852 1.62421 13.3692 1.71803Z" fill="#382921"/>
<path d="M3.32998 4.04273L3.40636 4.04737C3.54791 4.31186 3.6783 4.58285 3.83382 4.83899C4.22309 5.47933 4.74368 6.00831 5.30616 6.49646C5.56413 6.72012 5.71125 6.66351 5.82393 6.33313C6.13519 5.38503 6.66681 4.52363 7.37545 3.81907C7.41363 3.76617 7.46112 3.77916 7.51048 3.80051C7.54028 3.91002 7.39126 3.93879 7.40337 4.07892C8.08785 3.97684 8.66899 4.35733 9.30784 4.49097C9.69432 4.57357 10.0817 4.65431 10.4812 4.62647C10.8062 4.60419 11.1331 4.65431 11.4553 4.6441C11.989 4.62739 12.49 4.45849 13.005 4.35176C13.8124 4.18565 14.5444 3.8432 15.2521 3.43579C15.4328 3.46178 15.5371 3.60655 15.6647 3.7142C16.1918 4.14481 16.5522 4.70349 16.8595 5.30022C16.9741 5.58605 16.9815 5.58791 17.232 5.39302C17.3754 5.38003 17.4555 5.26403 17.5561 5.18607C18.1242 4.74247 18.7537 4.4687 19.4857 4.54665C19.9886 4.59668 20.4699 4.77574 20.8826 5.06636C20.9376 5.10533 20.9757 5.17401 21.0605 5.15916C21.3252 5.46533 21.4927 5.8429 21.542 6.24404C21.6528 7.0969 21.5261 7.9145 20.9925 8.61889C20.5585 9.19705 19.9355 9.50795 19.2883 9.77058C18.7984 9.96919 18.2751 10.0546 17.7554 10.1418C17.6701 10.1485 17.5901 10.1859 17.5305 10.247C17.4708 10.3082 17.4356 10.3889 17.4313 10.474C17.3762 10.7617 17.305 11.0462 17.2181 11.326C16.718 12.718 15.8407 13.7639 14.4242 14.2781C13.8301 14.4934 13.1819 14.5426 12.5486 14.5732C11.5424 14.6347 10.5336 14.6416 9.52667 14.5936C8.64569 14.5388 7.79451 14.3727 7.01224 13.9375C6.05396 13.4029 5.44492 12.5872 5.07241 11.5756C4.99006 11.3514 4.92773 11.1203 4.88616 10.8852C4.88256 10.8434 4.86825 10.8033 4.8446 10.7687C4.82095 10.7341 4.78874 10.7061 4.75111 10.6875C4.23891 10.3163 3.74628 9.92093 3.37191 9.39844C2.9109 8.74835 2.62956 7.98887 2.55611 7.19621C2.50862 6.74332 2.48346 6.28951 2.4518 5.8357C2.41734 5.3392 2.14263 4.94292 1.81389 4.58285C1.48515 4.22277 1.50192 4.21998 1.95358 4.0585C1.88467 4.33691 1.90422 4.35084 2.20409 4.36476C2.50396 4.37868 2.77123 4.32764 3.05526 4.31186C3.09119 4.31273 3.12693 4.3064 3.16035 4.29324C3.19377 4.28008 3.22419 4.26037 3.24982 4.23526C3.27544 4.21016 3.29575 4.18018 3.30952 4.14711C3.3233 4.11403 3.33024 4.07853 3.32998 4.04273Z" fill="#F7B895"/>
<path d="M7.86353 3.38313C8.0237 3.03698 8.34405 2.82631 8.5927 2.56274C9.15146 2.17668 9.71955 1.80083 10.3482 1.5317C10.4413 1.47694 10.4692 1.55675 10.5083 1.60965C10.7421 1.92611 11.0736 1.91033 11.2878 1.57624C11.3623 1.46116 11.3223 1.40549 11.2059 1.37857C11.0526 1.35358 10.8954 1.37223 10.7523 1.43239C10.4897 1.51499 10.4562 1.4853 10.473 1.21524C10.4664 1.15776 10.4722 1.09955 10.4901 1.04449C10.5079 0.989438 10.5373 0.938809 10.5763 0.895991C10.6182 0.900631 10.6136 0.999001 10.6443 0.962807C10.7768 0.784818 10.9607 0.651415 11.1714 0.580456C11.2198 0.565607 11.2021 0.497862 11.2366 0.466309C11.529 0.547976 11.5271 0.825458 11.6184 1.03891C11.6557 1.13171 11.6566 1.23473 11.7404 1.30247C11.8549 1.37393 12.0012 1.32289 12.1129 1.40084C12.1144 1.40314 12.1165 1.40502 12.119 1.40633C12.1214 1.40763 12.1241 1.40832 12.1269 1.40832C12.1297 1.40832 12.1324 1.40763 12.1348 1.40633C12.1372 1.40502 12.1393 1.40314 12.1409 1.40084C12.3593 1.41547 12.5716 1.47891 12.762 1.58645C12.9008 1.61968 13.029 1.68736 13.1345 1.7832L13.8227 2.19246C14.1104 2.4268 14.3703 2.693 14.5975 2.98593C14.7614 3.20959 14.7447 3.28383 14.4979 3.41561C13.8088 3.78683 13.0693 3.98358 12.2992 4.10979C11.5176 4.23054 10.7225 4.23586 9.93934 4.12556C9.88661 4.11688 9.83437 4.10542 9.78287 4.09123C9.86202 4.00492 9.96912 4.02162 10.0622 4.02533C10.2781 4.02025 10.4912 3.97689 10.6918 3.89726C10.0529 3.89077 9.45134 3.68753 8.83484 3.5706C8.75692 3.56631 8.68232 3.53774 8.62157 3.48893C8.6551 3.28569 8.64393 3.27456 8.34965 3.21702C8.34965 3.30982 8.5359 3.28476 8.46606 3.41469C8.2649 3.47594 8.06654 3.37664 7.86353 3.38313Z" fill="#F6B993"/>
<path d="M10.4768 1.21509C10.4572 1.47494 10.6137 1.43874 10.7562 1.36914C10.9171 1.29056 11.1021 1.27661 11.273 1.33016C11.4071 1.371 11.4835 1.43132 11.3541 1.59001C11.2655 1.69631 11.1627 1.78999 11.0486 1.86843C10.8866 1.98165 10.6295 1.90183 10.5057 1.73943C10.4535 1.67168 10.4656 1.54825 10.3436 1.53619C10.4246 1.43967 10.4358 1.32088 10.4768 1.21509Z" fill="#EC8C5F"/>
<path d="M11.2402 0.466129C11.2988 0.558933 11.3724 0.641526 11.1638 0.661015C10.9077 0.684216 10.7717 0.90416 10.619 1.08977C10.5463 1.03037 10.6013 0.955206 10.5799 0.895811C10.7326 0.649881 10.8891 0.409519 11.2402 0.466129Z" fill="#F0DDCF"/>
<path d="M12.7667 1.58617L12.1465 1.40056C12.2572 1.38136 12.3709 1.38814 12.4786 1.42036C12.5862 1.45258 12.6849 1.50935 12.7667 1.58617Z" fill="#382921"/>
<path d="M7.49109 3.8099L7.37561 3.81919C7.46804 3.74713 7.58118 3.70644 7.69849 3.7031C7.81579 3.69976 7.9311 3.73394 8.0275 3.80063L8.01631 3.81547C7.83937 3.88229 7.66524 3.81269 7.49109 3.8099Z" fill="#382921"/>
<path d="M12.1176 1.40082C11.9845 1.40082 11.8448 1.42495 11.7451 1.30245C11.8755 1.30894 12.0189 1.26996 12.1176 1.40082Z" fill="#382921"/>
<path d="M13.1364 1.7812L12.7639 1.58446C12.839 1.57249 12.916 1.58521 12.9832 1.62071C13.0504 1.6562 13.1042 1.71254 13.1364 1.7812Z" fill="#382921"/>
<path d="M21.0625 5.15201C21.0169 5.30143 20.9554 5.20584 20.9023 5.16037C20.6006 4.90608 20.2402 4.78915 19.8677 4.68428C18.9001 4.40587 18.13 4.78729 17.411 5.37381C17.3644 5.41186 17.3067 5.55942 17.235 5.38773C17.9483 4.66479 18.7735 4.22676 19.8277 4.40494C20.3221 4.48182 20.766 4.75036 21.0625 5.15201Z" fill="#F2E4DA"/>
<path d="M7.49099 3.80989C7.667 3.67347 7.8402 3.7969 8.01435 3.81546C8.33845 4.01215 8.69937 4.14098 9.07508 4.1941C9.74535 4.31574 10.4249 4.37939 11.1062 4.38435C12.3084 4.39506 13.495 4.11313 14.5631 3.56303C14.62 3.5397 14.6721 3.50603 14.7167 3.46373C14.8881 3.26513 15.0669 3.31618 15.2513 3.43404C15.2708 3.50178 15.2615 3.55839 15.1842 3.57788C14.8052 3.67068 14.5156 3.95374 14.1477 4.07253C13.2984 4.35094 12.4481 4.63677 11.5495 4.68689C10.5148 4.74443 9.48111 4.72309 8.50606 4.30732C8.16242 4.16069 7.80949 4.1412 7.44908 4.12914C7.38389 4.12914 7.28797 4.16441 7.26283 4.09202C7.22744 4.00571 7.33358 3.97044 7.38108 3.91569C7.41572 3.87843 7.45242 3.84311 7.49099 3.80989Z" fill="#FAF5EE"/>
<path d="M8.62519 3.44695C9.0424 3.57409 9.48102 3.6075 9.8973 3.72536C10.1719 3.78892 10.4536 3.817 10.7354 3.80889C10.7904 3.80889 10.8668 3.80888 10.8696 3.87013C10.8696 3.95459 10.7764 3.96758 10.7178 3.98521C10.4147 4.0683 10.1005 4.10369 9.78648 4.09008H9.69336C9.41397 4.06409 9.15787 3.95458 8.87849 3.93695C8.65313 3.9221 8.45663 3.80424 8.25082 3.72257C8.11858 3.72257 8.02359 3.62142 7.90439 3.58151C7.88347 3.57781 7.86412 3.56798 7.84882 3.55329C7.83352 3.5386 7.82296 3.5197 7.81847 3.499C7.81397 3.47831 7.81574 3.45675 7.82358 3.43707C7.83142 3.41739 7.84497 3.40047 7.86248 3.38848C8.06736 3.24 8.26945 3.42931 8.4734 3.39405C8.53207 3.38848 8.59353 3.38291 8.62519 3.44695Z" fill="#F0D1B9"/>
<path d="M8.25281 3.71715C8.39902 3.70044 8.52008 3.78953 8.6458 3.83408C8.77152 3.87863 8.8721 3.91575 8.99596 3.86378C9.01645 3.8545 9.05649 3.848 9.06208 3.85728C9.2176 4.08836 9.52772 3.9009 9.69535 4.08465C9.19153 4.04753 8.68957 4.00948 8.25281 3.71715Z" fill="#F6B993"/>
<path d="M3.32998 4.04288C3.3475 4.07756 3.35549 4.11625 3.35315 4.155C3.3508 4.19376 3.33822 4.2312 3.31666 4.26354C3.29509 4.29587 3.26532 4.32194 3.23037 4.33909C3.19542 4.35625 3.15654 4.36387 3.11767 4.3612C2.79359 4.37605 2.47228 4.43173 2.14634 4.41596C2.01782 4.40946 1.88931 4.40946 1.82412 4.28046C1.75893 4.15146 1.94704 4.14497 1.95822 4.0466C2.17488 3.95415 2.40804 3.90616 2.64373 3.90552C2.87943 3.90489 3.11281 3.9516 3.32998 4.04288Z" fill="#FCFAF7"/>
<path d="M15.6574 12.3033C15.1545 13.1451 14.5138 13.8068 13.4903 13.9868C13.3603 14.0032 13.2294 14.0119 13.0983 14.0128C13.0516 14.0204 13.0036 14.0117 12.9626 13.9882C12.9215 13.9647 12.8899 13.9278 12.8729 13.8838C12.8357 13.791 12.8934 13.7204 12.9595 13.6629C13.4093 13.2703 13.7045 12.7646 13.9923 12.2551C14.2633 11.7753 14.3816 11.2398 14.5324 10.7173C14.6672 10.2376 14.7033 9.7357 14.6386 9.24173C14.626 9.04896 14.6232 8.85568 14.6302 8.66264C14.6302 8.50951 14.6507 8.3536 14.5641 8.21068C14.5538 8.19862 14.5466 8.18428 14.5431 8.16886C14.5396 8.15343 14.5398 8.1374 14.5439 8.1221C14.5479 8.1068 14.5555 8.09269 14.5662 8.08097C14.5769 8.06925 14.5902 8.06026 14.6051 8.05477C14.688 8.02322 14.6982 8.0956 14.7243 8.15407C14.827 8.43562 14.8842 8.73164 14.8938 9.03106C14.9292 9.50251 15.0344 9.98045 14.9189 10.4575C14.9087 10.5011 14.9105 10.5568 14.9711 10.5688C14.9845 10.5723 14.9985 10.5727 15.0121 10.5701C15.0257 10.5675 15.0385 10.5619 15.0497 10.5537C15.0608 10.5456 15.07 10.535 15.0765 10.5228C15.0831 10.5107 15.0868 10.4972 15.0875 10.4834C15.2318 9.73359 15.4758 9.00601 15.3948 8.21532C15.3436 7.71325 15.3287 7.20283 15.2849 6.69705C15.2616 6.42885 15.1648 6.17271 15.1853 5.89708C15.1955 5.7486 15.2355 5.6298 15.3715 5.58433C15.437 5.55846 15.5091 5.55425 15.5772 5.57229C15.6452 5.59033 15.7057 5.62969 15.7496 5.68456C15.9824 5.94719 16.0579 6.28222 16.1566 6.59682C16.3378 7.223 16.4607 7.86452 16.5235 8.51322C16.5775 8.91951 16.5661 9.33177 16.49 9.73452C16.3968 10.1985 16.3391 10.6728 16.1687 11.1201C16.1342 11.2129 16.11 11.3057 16.0672 11.3985C15.9638 11.611 15.8595 11.8198 15.9424 12.0658C15.7599 12.0388 15.6891 12.1483 15.6574 12.3033Z" fill="#ED8859"/>
<path d="M5.64517 8.70807C5.64517 8.05844 5.86401 7.458 6.05585 6.85199C6.19461 6.41395 6.29148 5.96014 6.48891 5.5416C6.5782 5.32138 6.70413 5.11776 6.86142 4.9393C6.95411 4.85369 7.07203 4.80014 7.19768 4.7866C7.32333 4.77306 7.45002 4.80025 7.55894 4.86413C7.71446 4.96436 7.74519 5.17131 7.60737 5.3532C6.98062 6.20236 6.65094 7.17309 6.43209 8.19022C6.3483 8.61236 6.20929 9.02171 6.01861 9.4078C5.98974 9.46534 5.9618 9.53031 5.90034 9.53866C5.81466 9.55073 5.79138 9.45978 5.76065 9.40502C5.65324 9.18939 5.61302 8.94666 5.64517 8.70807Z" fill="#FDFBF7"/>
<path d="M19.5211 5.13599C20.0799 5.20745 20.4524 5.56289 20.7094 6.05939C21.0298 6.67468 20.836 7.20551 20.4244 7.6983C19.9513 8.26347 19.3274 8.55859 18.6243 8.71914C18.438 8.76276 18.2518 8.82216 18.0655 8.88341C17.7955 8.97621 17.7135 8.91774 17.693 8.64211C17.6437 8.00362 17.5887 7.36606 17.4257 6.74335C17.381 6.57352 17.3755 6.41668 17.5049 6.26634C17.9659 5.73086 18.5125 5.3383 19.2119 5.17032C19.306 5.15176 19.401 5.15176 19.5211 5.13599Z" fill="#352219"/>
<path d="M17.3363 7.62594C17.298 7.75664 17.281 7.89263 17.2861 8.02871C17.2861 8.08068 17.2944 8.14843 17.2218 8.15771C17.1492 8.16699 17.1445 8.09367 17.1287 8.04634C16.9933 7.59841 16.8598 7.14954 16.7282 6.69976C16.6286 6.35731 16.5541 6.00744 16.3967 5.68448C16.3902 5.67056 16.3753 5.65942 16.3734 5.64458C16.3548 5.53414 16.2961 5.38009 16.3976 5.32812C16.4991 5.27615 16.5625 5.42092 16.6258 5.5063C16.9173 5.92156 17.1179 6.39333 17.2143 6.89093C17.2674 7.13501 17.2628 7.393 17.3363 7.62594Z" fill="#EA8C60"/>
<path d="M8.20807 5.82917C8.19783 5.99065 8.09724 6.1512 8.03671 6.32382C7.91192 6.67833 7.7769 7.0282 7.65118 7.38271C7.62696 7.45138 7.60554 7.53213 7.53104 7.5312C7.45654 7.53027 7.46119 7.4384 7.45653 7.38179C7.40624 6.75814 7.52732 6.1809 7.93429 5.68347C7.95538 5.65572 7.98495 5.63556 8.01855 5.62602C8.05214 5.61648 8.08794 5.61808 8.12054 5.63057C8.18573 5.65192 8.20714 5.69925 8.20807 5.82917Z" fill="#FDF5EB"/>
<path d="M4.92444 6.37308C4.94492 6.47981 4.91326 6.53549 4.80709 6.46589C4.38619 6.19071 4.04744 5.80762 3.82646 5.35689C3.78362 5.27336 3.85533 5.2483 3.89258 5.20747C3.94752 5.14714 3.99783 5.18705 4.02297 5.23531C4.20922 5.60003 4.51933 5.86266 4.80896 6.14107C4.86763 6.19954 4.971 6.25522 4.92444 6.37308Z" fill="#F3D3B8"/>
<path d="M6.2776 12.606C6.31486 12.6301 6.34839 12.6496 6.37819 12.6728C6.86245 13.0625 7.3169 13.495 7.90081 13.7447C7.95389 13.7669 7.99395 13.8124 7.96135 13.8737C7.92876 13.9349 7.88498 13.9043 7.84121 13.8848C7.25267 13.6155 6.71666 13.2444 6.25805 12.7888C6.23614 12.7724 6.22113 12.7486 6.21597 12.7218C6.2108 12.695 6.21584 12.6673 6.23011 12.644C6.23756 12.6273 6.26084 12.618 6.2776 12.606Z" fill="#623925"/>
<path d="M16.6668 11.5684C16.5029 12.0259 16.2356 12.3507 15.9581 12.6681C15.8735 12.7577 15.7836 12.8423 15.689 12.9214C15.6601 12.9474 15.6238 12.9678 15.5875 12.9326C15.5817 12.9274 15.5771 12.921 15.5739 12.9139C15.5707 12.9068 15.5691 12.8991 15.5691 12.8913C15.5691 12.8835 15.5707 12.8758 15.5739 12.8687C15.5771 12.8616 15.5817 12.8552 15.5875 12.85C15.9286 12.4534 16.2491 12.0395 16.5476 11.6101C16.5607 11.5953 16.5905 11.5943 16.6668 11.5684Z" fill="#6F452C"/>
<path d="M8.43909 6.62835C8.45766 6.47333 8.5091 6.32402 8.58996 6.19031C8.63094 6.12906 8.69146 6.05946 8.78179 6.09751C8.87212 6.13556 8.86933 6.2228 8.8507 6.29704C8.82416 6.44825 8.76986 6.59329 8.69053 6.72487C8.65141 6.78055 8.63279 6.8882 8.52849 6.8585C8.42418 6.82881 8.44747 6.72393 8.43909 6.62835Z" fill="#FCECD4"/>
<path d="M4.60773 10.1381C4.27061 10.1465 3.65968 9.5618 3.57214 9.17017C3.92323 9.45879 4.20914 9.81608 4.60773 10.1381Z" fill="#7B533B"/>
<path d="M15.2811 4.79278C15.2525 4.80142 15.2218 4.79973 15.1944 4.78802C15.167 4.7763 15.1446 4.75531 15.1312 4.72874C15.1051 4.66563 15.1712 4.63594 15.2122 4.60903C15.3048 4.5423 15.4009 4.48035 15.4999 4.42342C15.5265 4.40683 15.5583 4.40059 15.5893 4.4059C15.6202 4.4112 15.6481 4.42769 15.6676 4.45219C15.7123 4.50787 15.6611 4.54499 15.6387 4.59417C15.6119 4.66377 15.5614 4.72178 15.496 4.75807C15.4307 4.79436 15.3546 4.80665 15.2811 4.79278Z" fill="#FCEAD5"/>
<path d="M6.42563 12.0945C6.41073 12.1873 6.36418 12.2448 6.27105 12.2309C6.21333 12.2293 6.15814 12.207 6.11556 12.1681C6.07297 12.1293 6.04585 12.0765 6.03916 12.0193C6.03264 11.9386 6.1202 11.9117 6.1919 11.9265C6.29714 11.9469 6.40607 11.9646 6.42563 12.0945Z" fill="#875C45"/>
<path d="M16.8017 10.7035C16.7291 10.685 16.6508 10.6571 16.6732 10.5717C16.6813 10.5138 16.7089 10.4604 16.7516 10.4202C16.7943 10.38 16.8494 10.3556 16.9079 10.3509C16.9908 10.3453 17.0457 10.3843 17.0355 10.4743C17.0196 10.6107 16.9135 10.6562 16.8017 10.7035Z" fill="#260803"/>
<path d="M15.6572 12.3033C15.4896 12.1966 15.6572 12.1446 15.701 12.088C15.7662 12.0119 15.8472 11.9024 15.9431 12.0648L15.6572 12.3033Z" fill="#833C1E"/>
<path d="M12.6353 3.76448C12.5478 3.75613 12.4491 3.7849 12.4332 3.70138C12.4174 3.61785 12.5329 3.63177 12.585 3.59651C12.6801 3.54382 12.7865 3.51484 12.8952 3.51206C13.3189 3.46194 13.683 3.2652 14.049 3.06752C14.1626 3.00534 14.3284 2.88192 14.4122 3.04061C14.496 3.19931 14.306 3.28005 14.1803 3.34501C13.6895 3.59837 13.1569 3.70045 12.6353 3.76448Z" fill="#FCEAD9"/>
<path d="M8.62539 3.44689C8.57324 3.43112 8.51086 3.4404 8.47267 3.38843C8.3991 3.30583 8.17837 3.29562 8.24543 3.16662C8.31248 3.03763 8.45962 3.18147 8.56951 3.2121C8.64773 3.23344 8.74738 3.24551 8.75576 3.35316C8.76601 3.44596 8.68127 3.43019 8.62539 3.44689Z" fill="#896145"/>
<path d="M8.61588 2.83179C8.69038 2.83736 8.75557 2.85685 8.76023 2.94315C8.76023 3.00255 8.73229 3.0508 8.6671 3.04616C8.63301 3.04219 8.60086 3.02827 8.57468 3.00615C8.5485 2.98402 8.52947 2.95468 8.51998 2.9218C8.49856 2.85313 8.5628 2.842 8.61588 2.83179Z" fill="#A46A4E"/>
<path d="M18.2408 5.86249C18.4805 5.6944 18.7413 5.55837 19.0166 5.45787C19.769 5.22586 20.4135 5.59336 20.6332 6.34971C20.7878 6.87034 20.5792 7.26197 20.2729 7.6369C20.1741 7.74566 20.0693 7.84884 19.959 7.94594C19.512 8.30323 18.9821 8.47771 18.4364 8.60763C18.3228 8.63454 18.2306 8.706 18.1095 8.71342C17.9884 8.72085 17.9232 8.69857 17.9093 8.56215C17.8618 8.09813 17.8208 7.63411 17.7491 7.17009C17.7248 7.00409 17.6875 6.84025 17.6374 6.68009C17.5731 6.48242 17.6709 6.37477 17.7761 6.28011C17.9208 6.13 18.0761 5.99044 18.2408 5.86249Z" fill="#FEFEFE"/>
<path d="M18.2173 5.85449C18.0971 6.02432 17.9258 6.14218 17.7759 6.28325C17.7153 6.33012 17.6707 6.3945 17.6482 6.46759C17.6257 6.54068 17.6263 6.6189 17.6501 6.69158C17.8075 7.28089 17.8615 7.88875 17.9146 8.49383C17.9314 8.68779 17.9929 8.70357 18.1577 8.65624C18.7751 8.47713 19.3935 8.3008 19.9355 7.93794C19.7436 8.17273 19.4698 8.27296 19.1998 8.38711C18.8366 8.54116 18.4548 8.62283 18.0767 8.73791C17.9081 8.78895 17.8457 8.71563 17.8392 8.56065C17.8067 7.89881 17.7161 7.2411 17.5682 6.59506C17.5554 6.55431 17.5538 6.51091 17.5635 6.46932C17.5731 6.42773 17.5937 6.38945 17.6231 6.35842C17.8113 6.17281 17.9761 5.96771 18.2173 5.85449Z" fill="#96928E"/>
</svg>
