<svg width="14" height="14" viewBox="0 0 14 14" fill="none" xmlns="http://www.w3.org/2000/svg">
<g filter="url(#filter0_biiii_692:113)">
<path d="M8.07275 13.25H1.82275C1.4878 13.2616 1.16305 13.1337 0.926057 12.8967C0.689066 12.6597 0.561112 12.335 0.572752 12V5.75C0.561112 5.41504 0.689066 5.09029 0.926057 4.8533C1.16305 4.61631 1.4878 4.48836 1.82275 4.5H4.32275V2C4.31111 1.66504 4.43907 1.34029 4.67606 1.1033C4.91305 0.866312 5.2378 0.738358 5.57275 0.749998H11.8228C12.1577 0.738358 12.4825 0.866312 12.7194 1.1033C12.9564 1.34029 13.0844 1.66504 13.0728 2V8.25C13.0842 8.5849 12.9562 8.90954 12.7192 9.14649C12.4823 9.38344 12.1577 9.51145 11.8228 9.5H9.32275V12C9.3342 12.3349 9.20619 12.6595 8.96924 12.8965C8.73229 13.1334 8.40765 13.2615 8.07275 13.25ZM1.82275 5.75V12H8.07275V9.5H5.57275C5.23785 9.51145 4.91321 9.38344 4.67626 9.14649C4.43931 8.90954 4.3113 8.5849 4.32275 8.25V5.75H1.82275ZM5.57275 2V8.25H11.8228V2H5.57275Z" fill="#2A8B54"/>
</g>
<defs>
<filter id="filter0_biiii_692:113" x="-1.86207" y="-1.68482" width="17.3696" height="19.1083" filterUnits="userSpaceOnUse" color-interpolation-filters="sRGB">
<feFlood flood-opacity="0" result="BackgroundImageFix"/>
<feGaussianBlur in="BackgroundImage" stdDeviation="1.21704"/>
<feComposite in2="SourceAlpha" operator="in" result="effect1_backgroundBlur_692:113"/>
<feBlend mode="normal" in="SourceGraphic" in2="effect1_backgroundBlur_692:113" result="shape"/>
<feColorMatrix in="SourceAlpha" type="matrix" values="0 0 0 0 0 0 0 0 0 0 0 0 0 0 0 0 0 0 127 0" result="hardAlpha"/>
<feOffset dy="-1.04318"/>
<feGaussianBlur stdDeviation="1.73863"/>
<feComposite in2="hardAlpha" operator="arithmetic" k2="-1" k3="1"/>
<feColorMatrix type="matrix" values="0 0 0 0 1 0 0 0 0 1 0 0 0 0 1 0 0 0 0.15 0"/>
<feBlend mode="normal" in2="shape" result="effect2_innerShadow_692:113"/>
<feColorMatrix in="SourceAlpha" type="matrix" values="0 0 0 0 0 0 0 0 0 0 0 0 0 0 0 0 0 0 127 0" result="hardAlpha"/>
<feOffset dy="-1.73863"/>
<feGaussianBlur stdDeviation="3.1391"/>
<feComposite in2="hardAlpha" operator="arithmetic" k2="-1" k3="1"/>
<feColorMatrix type="matrix" values="0 0 0 0 1 0 0 0 0 1 0 0 0 0 1 0 0 0 0.15 0"/>
<feBlend mode="normal" in2="effect2_innerShadow_692:113" result="effect3_innerShadow_692:113"/>
<feColorMatrix in="SourceAlpha" type="matrix" values="0 0 0 0 0 0 0 0 0 0 0 0 0 0 0 0 0 0 127 0" result="hardAlpha"/>
<feOffset dy="4.17272"/>
<feGaussianBlur stdDeviation="2.12362"/>
<feComposite in2="hardAlpha" operator="arithmetic" k2="-1" k3="1"/>
<feColorMatrix type="matrix" values="0 0 0 0 1 0 0 0 0 1 0 0 0 0 1 0 0 0 0.1 0"/>
<feBlend mode="normal" in2="effect3_innerShadow_692:113" result="effect4_innerShadow_692:113"/>
<feColorMatrix in="SourceAlpha" type="matrix" values="0 0 0 0 0 0 0 0 0 0 0 0 0 0 0 0 0 0 127 0" result="hardAlpha"/>
<feOffset dy="1.02406"/>
<feGaussianBlur stdDeviation="0.530904"/>
<feComposite in2="hardAlpha" operator="arithmetic" k2="-1" k3="1"/>
<feColorMatrix type="matrix" values="0 0 0 0 1 0 0 0 0 1 0 0 0 0 1 0 0 0 0.15 0"/>
<feBlend mode="normal" in2="effect4_innerShadow_692:113" result="effect5_innerShadow_692:113"/>
</filter>
</defs>
</svg>
