<svg width="40" height="40" viewBox="0 0 40 40" fill="none" xmlns="http://www.w3.org/2000/svg">
<path d="M29.3121 28.7686C28.765 29.6717 28.0381 30.4527 27.1764 31.063C26.3148 31.6733 25.3368 32.0998 24.3033 32.3162C23.331 32.5287 22.34 32.6438 21.3448 32.6598C19.4925 32.6974 17.6369 32.8071 15.7895 32.6222C13.3351 32.3751 11.1751 31.4882 9.59768 29.487C9.42263 29.299 9.27896 29.0841 9.17222 28.8504C8.75847 28.1297 8.43637 27.3601 8.21335 26.5596C8.10863 26.1914 8.17899 25.7758 7.88609 25.4502C7.82391 25.3831 8.01699 25.3274 8.12499 25.3307C8.41625 25.4158 8.43753 25.6678 8.49643 25.9083C8.91206 27.6166 9.66314 29.1221 11.0458 30.274C12.3287 31.3425 13.8276 31.8694 15.4492 32.0642C17.0168 32.2657 18.6011 32.3029 20.1765 32.1754C20.975 32.1051 21.7833 32.2049 22.5835 32.0773C23.8435 31.8776 25.1133 31.7696 26.2587 31.0824C27.5724 30.2897 28.6393 29.1469 29.3399 27.7819C29.5641 27.3614 29.7637 26.9277 29.9519 26.4892C30.1253 26.2405 30.1679 25.941 30.271 25.6711C30.2988 25.5991 30.3135 25.4894 30.4101 25.5074C30.5344 25.5221 30.5197 25.6351 30.5066 25.73C30.3674 26.4952 30.1188 27.2364 29.7686 27.9308C29.6394 28.2106 29.4381 28.4675 29.3121 28.7686Z" fill="#24150F"/>
<path d="M5.92095 13.536C6.20894 13.6653 6.30873 13.9484 6.42818 14.1905C7.09253 15.5781 8.12016 16.6712 9.2345 17.6988C9.52413 17.9672 9.58793 17.6841 9.63212 17.5123C9.80651 16.9119 10.0497 16.3337 10.357 15.7892C10.7579 15.0316 11.3192 14.3754 11.7757 13.662C12.1423 13.0844 12.9751 13.1073 13.2173 12.3366C13.4202 11.6902 14.0355 11.2746 14.5624 10.841C15.4344 10.1263 16.4035 9.53897 17.4406 9.09665C17.5405 9.06177 17.6289 9.00014 17.6961 8.91848C17.7634 8.83682 17.8069 8.73827 17.8219 8.63357C17.9708 7.99704 18.2474 7.42761 18.8773 7.11835C19.0883 7.00628 19.3322 6.9724 19.5657 7.02271C19.7993 7.07301 20.0075 7.20426 20.1537 7.39325C20.3209 7.71659 20.4521 8.05736 20.5447 8.4094C20.5598 8.51652 20.6158 8.61366 20.7009 8.68045C20.786 8.74725 20.8936 8.77853 21.0013 8.76775C21.4714 8.80976 21.929 8.9414 22.3496 9.15556C22.4625 9.20792 22.582 9.23083 22.6933 9.27665C22.8624 9.41391 23.0496 9.52734 23.2496 9.61374L23.9941 10.1046C24.3214 10.3599 24.3214 10.3713 24.0792 10.4941C23.6194 10.3304 23.2283 10.0343 22.816 9.78391C22.6627 9.60388 22.4526 9.48151 22.2203 9.43701C22.1846 9.42512 22.1501 9.40977 22.1173 9.39119C21.8168 9.2239 21.4794 9.13393 21.1355 9.12938C21.0964 9.12363 21.058 9.11375 21.0209 9.09993C20.8279 8.98375 20.602 8.99847 20.3909 8.94938C20.0849 8.77429 20.0915 8.43395 19.9786 8.15741C19.8657 7.88087 19.8002 7.61905 19.4877 7.52905C18.9362 7.43251 18.6924 7.82686 18.4323 8.18358C18.3404 8.35005 18.28 8.53198 18.2539 8.7203C18.1917 8.93139 18.159 9.15556 17.9937 9.32247C17.4538 9.6661 16.8663 9.92463 16.31 10.2388C15.8092 10.5219 15.4116 10.9522 14.8782 11.1781C14.3385 11.5218 13.8855 11.9854 13.5544 12.5329C13.4546 12.6867 13.5331 12.7866 13.6477 12.8782C13.7327 12.9486 13.844 12.9698 13.9357 13.032C14.0273 13.0942 14.1435 13.158 14.0845 13.2824C14.0387 13.3806 13.9209 13.3593 13.8277 13.3298C13.4775 13.2055 13.1306 13.1449 12.7968 13.3707C11.8624 14.2183 11.2733 15.3114 10.6499 16.3783C10.393 16.8168 10.2572 17.3028 10.0821 17.7741C9.8432 18.4286 9.50123 18.5382 8.99724 18.0883C7.752 16.9805 6.61311 15.781 5.92095 14.2298C5.84404 14.0563 5.74749 13.8911 5.66895 13.7176C5.61822 13.4771 5.73768 13.4607 5.92095 13.536Z" fill="#291A15"/>
<path d="M29.312 28.7683C29.2875 28.4116 29.5787 28.1956 29.7129 27.9109C29.9878 27.2736 30.2265 26.6213 30.428 25.9571C30.4489 25.8172 30.4489 25.6749 30.428 25.535C30.2496 25.8753 30.3069 26.2795 30.0009 26.5282C29.9109 26.3498 30.0009 26.1813 30.0353 26.0111C30.0827 25.7853 30.176 25.566 30.2104 25.3402C30.356 24.3584 30.6227 24.3863 31.3803 24.2521C32.1362 24.1437 32.8784 23.955 33.5943 23.6892C34.7871 23.1983 35.926 22.6239 36.6755 21.4998C37.2548 20.6186 37.5574 19.5843 37.5444 18.5299C37.5797 17.5298 37.2784 16.5467 36.6886 15.7383C35.3206 14.0692 33.1525 14.0463 31.4687 15.0609C30.9631 15.3583 30.4983 15.7203 30.086 16.1376C29.9371 16.2668 29.7997 16.4452 29.5738 16.3601C29.4905 16.3336 29.4204 16.2764 29.3775 16.2002C29.3347 16.124 29.3224 16.0343 29.3431 15.9494C29.4576 15.8087 29.5444 15.9739 29.6475 15.9903C29.4838 15.6941 29.1206 15.4797 29.3104 15.0658C29.5313 15.2785 29.5345 15.7628 29.8324 15.7677C30.0516 15.7677 30.2709 15.4077 30.5 15.2196C31.6454 14.2803 32.9545 13.7992 34.4386 13.9923C35.9653 14.192 37.0813 15.0641 37.6016 16.4926C38.3609 18.5757 38.0402 20.5605 36.5937 22.2672C35.8082 23.195 34.707 23.7252 33.5812 24.1506C32.8156 24.4346 32.0192 24.6273 31.2085 24.725C31.0724 24.7285 30.9426 24.7831 30.845 24.878C30.7473 24.973 30.689 25.1012 30.6816 25.2371C30.4963 26.3921 30.0961 27.5022 29.5018 28.5098C29.4429 28.5991 29.3796 28.6854 29.312 28.7683Z" fill="#3F2E25"/>
<path d="M29.3233 15.066C29.3757 15.4587 29.5114 15.7974 29.9058 15.9742C29.6751 16.3701 29.5507 15.9643 29.3806 15.9136C29.1416 15.8367 29.0991 15.5994 28.9993 15.4227C28.4696 14.4501 27.7455 13.5968 26.8721 12.9159C26.7458 12.8119 26.6 12.734 26.4434 12.6868C26.3323 12.634 26.2094 12.6109 26.0867 12.6195C25.964 12.6281 25.8457 12.6681 25.743 12.7359C24.6172 13.4689 23.3556 13.8486 22.058 14.1349C21.3642 14.2871 20.6573 14.3427 19.957 14.4524C19.507 14.5227 19.0619 14.4344 18.6136 14.3951C17.4502 14.2904 16.2736 14.2707 15.1348 13.968C14.6684 13.8453 14.1758 13.7487 13.8355 13.3478C13.8355 13.3266 13.8502 13.3053 13.8568 13.284C14.0466 13.2268 14.0482 13.2268 13.9893 13.1728C13.9676 13.1572 13.9446 13.1435 13.9206 13.1319C13.2497 12.7211 13.2186 12.695 13.7324 12.0961C14.0597 11.7213 14.3378 11.2779 14.8533 11.1012C14.8533 11.3188 14.6635 11.417 14.5391 11.5528C14.2397 11.8801 13.8699 12.1501 13.6833 12.5722C13.6391 12.7899 13.8142 12.8373 13.9501 12.911C14.0859 12.9846 14.2151 13.0337 14.3411 13.1073C15.1069 13.5 15.9332 13.6244 16.7776 13.6817C16.8427 13.6857 16.9073 13.6956 16.9707 13.7111C18.2707 13.9113 19.5917 13.9344 20.8979 13.7798C22.238 13.5949 23.5438 13.2988 24.771 12.7113C25.5696 12.3284 25.5892 12.2417 25.0329 11.5495C24.8275 11.2953 24.596 11.0633 24.3423 10.8574C24.2081 10.7477 24.0478 10.6528 24.0445 10.445C24.3996 10.2732 23.9087 10.2339 23.9889 10.103C24.7023 10.4794 25.2079 11.0734 25.6645 11.7115C25.8379 11.9553 26.0048 12.1468 26.3387 12.155C26.5163 12.1695 26.6864 12.2336 26.8295 12.3399C27.8621 13.0631 28.8062 13.8715 29.3233 15.066Z" fill="#382921"/>
<path d="M5.92069 13.536C5.80779 13.536 5.66541 13.5229 5.74232 13.7176C5.69097 13.7633 5.62453 13.7884 5.55579 13.788C4.81865 13.5037 4.00209 13.5037 3.26494 13.788C3.20113 13.8109 3.13564 13.824 3.07183 13.8518C2.66602 14.0384 2.64802 14.1218 2.9491 14.4704C3.48745 15.0922 3.98 15.7336 4.15018 16.5714C4.20536 16.9341 4.2289 17.3009 4.22053 17.6677C4.24357 18.6742 4.38025 19.6749 4.62797 20.6507C5.11887 22.4769 6.22175 23.8743 7.73699 24.9805C7.88753 25.0917 8.13299 25.131 8.1199 25.3977C8.0659 25.419 7.93664 25.4272 7.96446 25.4501C8.37027 25.7643 8.19682 26.2682 8.33591 26.6577C8.56499 27.3122 8.74005 27.9864 9.13114 28.5738C9.15858 28.6128 9.17757 28.6572 9.18687 28.7039C9.19616 28.7507 9.19559 28.7989 9.18515 28.8455C8.74661 28.3251 8.53062 27.7 8.32444 27.0651C8.19026 26.6397 8.02499 26.2175 7.99718 25.7561C7.98408 25.5368 7.77956 25.4877 7.64374 25.3961C6.2342 24.4753 5.13614 23.1496 4.49382 21.5933C4.20636 20.8572 4.01444 20.0873 3.92275 19.3024C3.82978 18.6138 3.77515 17.9206 3.75912 17.2259C3.75756 16.7892 3.66675 16.3573 3.49229 15.9569C3.31784 15.5565 3.06338 15.196 2.74456 14.8974C1.9444 14.1251 1.9264 13.8256 3.1111 13.3773C3.90702 13.0723 4.78315 13.0474 5.59506 13.3069C5.72745 13.342 5.84293 13.4233 5.92069 13.536Z" fill="#3E2C25"/>
<path d="M3.58889 9.48789C3.49726 10.0557 3.82125 10.509 3.99633 11.0031C4.13378 11.3877 4.29743 11.764 4.25325 12.1878C4.25633 12.3109 4.21895 12.4316 4.14686 12.5314C4.10105 12.5822 4.04377 12.6395 3.97504 12.6002C3.95359 12.5853 3.93603 12.5655 3.92379 12.5424C3.91154 12.5194 3.90499 12.4937 3.90469 12.4676C4.02414 11.6282 3.54308 10.9508 3.30745 10.2079C3.17491 9.79388 3.25671 9.37007 3.25344 8.94953C3.25141 8.92983 3.25335 8.90993 3.25911 8.89099C3.26487 8.87204 3.27435 8.85444 3.28699 8.8392C3.29964 8.82397 3.31518 8.8114 3.33274 8.80225C3.3503 8.7931 3.36953 8.78754 3.38926 8.7859C3.52181 8.77281 3.5529 8.86609 3.5529 8.9659C3.57253 9.13444 3.57907 9.31117 3.58889 9.48789Z" fill="#222222"/>
<path d="M3.26015 12.3758C3.27651 12.5558 3.27158 12.6655 3.16031 12.6884C3.04904 12.7113 3.02942 12.6 3.00815 12.5247C2.79706 11.7933 2.21944 11.3793 1.65491 10.9555C1.32751 10.7304 1.0977 10.3895 1.01184 10.0015C0.997114 9.9279 0.979096 9.82644 1.074 9.78881C1.16891 9.75117 1.20982 9.85427 1.23763 9.91808C1.5109 10.4401 1.96089 10.7804 2.42561 11.1175C2.89032 11.4546 3.20451 11.8768 3.26015 12.3758Z" fill="#252525"/>
<path d="M22.6929 9.28136C22.4393 9.36808 22.256 9.16518 22.0384 9.10137C21.6483 8.95851 21.244 8.85812 20.8324 8.80192C20.7709 8.80484 20.7101 8.7882 20.6586 8.75439C20.6072 8.72058 20.5678 8.67134 20.5461 8.61374C20.4086 8.20956 20.2793 7.80376 20.1484 7.39795C20.4086 7.62703 20.4626 7.95594 20.5542 8.26357C20.6459 8.5712 20.7588 8.73483 21.1335 8.75447C21.6916 8.78462 22.2309 8.96682 22.6929 9.28136Z" fill="#382921"/>
<path d="M1.67943 12.3332C1.77694 12.3549 1.86822 12.3986 1.94621 12.461C2.02421 12.5234 2.08686 12.6028 2.12942 12.6932C2.17851 12.8274 2.03781 12.8568 1.95109 12.8306C1.85152 12.8194 1.75729 12.7798 1.67955 12.7166C1.60182 12.6533 1.54387 12.5691 1.51257 12.4739C1.49457 12.3905 1.56489 12.325 1.67943 12.3332Z" fill="#3B3B3B"/>
<path d="M23.2477 9.60857C23.1325 9.61115 23.019 9.5808 22.9205 9.52109C22.8219 9.46138 22.7425 9.37479 22.6914 9.27148C22.9064 9.32573 23.1001 9.44314 23.2477 9.60857Z" fill="#382921"/>
<path d="M5.60843 13.7078L5.74262 13.716C5.99134 14.1824 6.22044 14.6602 6.4937 15.1118C7.17769 16.2409 8.0924 17.1736 9.08074 18.0343C9.534 18.4286 9.79251 18.3288 9.9905 17.7463C10.5374 16.0746 11.4715 14.5558 12.7166 13.3135C12.7837 13.2202 12.8672 13.2431 12.9539 13.2808C13.0063 13.4739 12.7444 13.5246 12.7657 13.7717C13.9684 13.5917 14.9895 14.2626 16.112 14.4982C16.7911 14.6438 17.4718 14.7862 18.1738 14.7371C18.7448 14.6978 19.3192 14.7862 19.8853 14.7682C20.823 14.7387 21.7033 14.4409 22.6082 14.2527C24.0269 13.9598 25.313 13.356 26.5566 12.6377C26.8741 12.6835 27.0574 12.9388 27.2816 13.1286C28.2077 13.8878 28.8409 14.8729 29.3809 15.9251C29.5822 16.4291 29.5953 16.4323 30.0355 16.0887C30.2875 16.0658 30.4282 15.8612 30.6049 15.7238C31.6031 14.9416 32.7092 14.4589 33.9954 14.5964C34.879 14.6846 35.7246 15.0003 36.4499 15.5127C36.5464 15.5814 36.6135 15.7025 36.7624 15.6763C37.2275 16.2162 37.5219 16.8819 37.6084 17.5892C37.8031 19.093 37.5806 20.5346 36.643 21.7766C35.8804 22.796 34.7857 23.3442 33.6485 23.8072C32.7878 24.1574 31.8682 24.308 30.9551 24.4618C30.8052 24.4735 30.6647 24.5395 30.5599 24.6473C30.4551 24.7551 30.3932 24.8974 30.3857 25.0476C30.2888 25.5549 30.1637 26.0564 30.0109 26.5497C29.1322 29.0042 27.5908 30.8483 25.102 31.7549C24.058 32.1345 22.9191 32.2212 21.8064 32.2752C20.0384 32.3837 18.2658 32.3958 16.4965 32.3112C14.9486 32.2147 13.453 31.9218 12.0785 31.1543C10.3947 30.2118 9.32455 28.7735 8.67002 26.9899C8.52531 26.5945 8.4158 26.1871 8.34276 25.7725C8.33643 25.6989 8.31128 25.6282 8.26973 25.5671C8.22818 25.5061 8.17159 25.4568 8.10546 25.4239C7.20548 24.7694 6.3399 24.0723 5.68209 23.1511C4.87206 22.0048 4.37772 20.6657 4.24867 19.2681C4.16522 18.4696 4.12102 17.6694 4.06539 16.8692C4.00484 15.9938 3.52215 15.2951 2.94453 14.6602C2.36691 14.0253 2.39636 14.0204 3.18998 13.7357C3.06889 14.2266 3.10324 14.2511 3.63014 14.2757C4.15703 14.3002 4.62664 14.2102 5.12572 14.1824C5.18884 14.1839 5.25164 14.1728 5.31037 14.1496C5.36909 14.1264 5.42254 14.0916 5.46757 14.0473C5.51259 14.0031 5.54827 13.9502 5.57247 13.8919C5.59667 13.8336 5.60888 13.771 5.60843 13.7078Z" fill="#F7B895"/>
<path d="M13.5737 12.5443C13.8552 11.934 14.418 11.5625 14.8549 11.0978C15.8367 10.4171 16.8349 9.7544 17.9394 9.27986C18.1031 9.18332 18.1521 9.32405 18.2209 9.41732C18.6316 9.9753 19.2141 9.94748 19.5905 9.3584C19.7214 9.1555 19.651 9.05733 19.4465 9.00988C19.1772 8.96581 18.901 8.9987 18.6496 9.10478C18.1882 9.25041 18.1293 9.19805 18.1587 8.72188C18.1472 8.62053 18.1574 8.51789 18.1888 8.42082C18.2201 8.32375 18.2717 8.23448 18.3403 8.15899C18.414 8.16717 18.4058 8.34061 18.4598 8.2768C18.6926 7.96297 19.0158 7.72775 19.386 7.60263C19.471 7.57645 19.4399 7.457 19.5005 7.40137C20.0143 7.54536 20.011 8.03462 20.1714 8.41098C20.2368 8.57461 20.2385 8.75624 20.3857 8.8757C20.587 9.00169 20.8439 8.91169 21.0403 9.04915C21.0429 9.0532 21.0466 9.05651 21.0509 9.05881C21.0552 9.06111 21.06 9.06232 21.0648 9.06232C21.0697 9.06232 21.0744 9.06111 21.0787 9.05881C21.083 9.05651 21.0867 9.0532 21.0894 9.04915C21.4731 9.07494 21.8461 9.18679 22.1808 9.37641C22.4247 9.43499 22.6499 9.55433 22.8353 9.72331L24.0446 10.4449C24.55 10.8581 25.0067 11.3275 25.406 11.844C25.6939 12.2383 25.6645 12.3692 25.2309 12.6016C24.02 13.2561 22.7208 13.603 21.3675 13.8256C19.9942 14.0385 18.5971 14.0479 17.2211 13.8534C17.1285 13.8381 17.0367 13.8179 16.9462 13.7928C17.0853 13.6407 17.2734 13.6701 17.4371 13.6767C17.8163 13.6677 18.1908 13.5912 18.5432 13.4508C17.4207 13.4394 16.3637 13.081 15.2804 12.8749C15.1435 12.8673 15.0124 12.8169 14.9057 12.7309C14.9646 12.3725 14.945 12.3529 14.4279 12.2514C14.4279 12.4151 14.7552 12.3709 14.6324 12.6C14.279 12.708 13.9304 12.5329 13.5737 12.5443Z" fill="#F6B993"/>
<path d="M18.1651 8.72217C18.1308 9.18034 18.4057 9.11652 18.656 8.99379C18.9387 8.85525 19.2639 8.83065 19.5642 8.92507C19.7998 8.99707 19.934 9.10343 19.7066 9.38324C19.551 9.57067 19.3704 9.73584 19.1699 9.87414C18.8851 10.0738 18.4335 9.93304 18.2159 9.64668C18.1242 9.52723 18.1455 9.3096 17.9312 9.28833C18.0735 9.11815 18.0931 8.90871 18.1651 8.72217Z" fill="#EC8C5F"/>
<path d="M19.5074 7.40147C19.6105 7.5651 19.7398 7.71073 19.3732 7.74509C18.9232 7.786 18.6843 8.17381 18.416 8.50107C18.2883 8.39635 18.3849 8.26381 18.3473 8.15909C18.6156 7.72546 18.8905 7.30165 19.5074 7.40147Z" fill="#F0DDCF"/>
<path d="M22.1889 9.37634L21.0991 9.04908C21.2937 9.01523 21.4935 9.02719 21.6827 9.084C21.8718 9.1408 22.0451 9.2409 22.1889 9.37634Z" fill="#382921"/>
<path d="M12.9192 13.2971L12.7163 13.3135C12.8787 13.1864 13.0775 13.1147 13.2836 13.1088C13.4897 13.1029 13.6923 13.1632 13.8617 13.2807L13.8421 13.3069C13.5312 13.4247 13.2252 13.302 12.9192 13.2971Z" fill="#382921"/>
<path d="M21.0486 9.04917C20.8146 9.04917 20.5691 9.09172 20.394 8.87572C20.6231 8.88718 20.8751 8.81845 21.0486 9.04917Z" fill="#382921"/>
<path d="M22.8386 9.71986L22.1841 9.37296C22.3161 9.35185 22.4513 9.37428 22.5694 9.43687C22.6875 9.49946 22.782 9.59879 22.8386 9.71986Z" fill="#382921"/>
<path d="M36.7653 15.6631C36.6852 15.9266 36.5772 15.758 36.4839 15.6779C35.9537 15.2295 35.3205 15.0233 34.6659 14.8384C32.9658 14.3475 31.6126 15.0201 30.3493 16.0542C30.2675 16.1213 30.166 16.3815 30.04 16.0788C31.2935 14.8041 32.7433 14.0317 34.5956 14.3459C35.4643 14.4814 36.2442 14.9549 36.7653 15.6631Z" fill="#F2E4DA"/>
<path d="M12.9192 13.2972C13.2285 13.0566 13.5328 13.2743 13.8388 13.307C14.4083 13.6538 15.0424 13.881 15.7026 13.9746C16.8803 14.1891 18.0743 14.3013 19.2714 14.3101C21.3838 14.329 23.4688 13.8319 25.3454 12.8619C25.4455 12.8208 25.537 12.7614 25.6154 12.6868C25.9165 12.3367 26.2307 12.4267 26.5547 12.6345C26.589 12.7539 26.5727 12.8537 26.4369 12.8881C25.7709 13.0517 25.262 13.5508 24.6156 13.7603C23.1233 14.2512 21.6293 14.7551 20.0503 14.8435C18.2323 14.945 16.416 14.9073 14.7028 14.1743C14.099 13.9157 13.4788 13.8813 12.8456 13.8601C12.731 13.8601 12.5625 13.9223 12.5183 13.7946C12.4561 13.6425 12.6426 13.5803 12.7261 13.4837C12.787 13.418 12.8515 13.3557 12.9192 13.2972Z" fill="#FAF5EE"/>
<path d="M14.9125 12.6574C15.6455 12.8816 16.4162 12.9405 17.1477 13.1483C17.6302 13.2604 18.1252 13.3099 18.6204 13.2956C18.7169 13.2956 18.8511 13.2956 18.856 13.4036C18.856 13.5525 18.6924 13.5754 18.5893 13.6065C18.0568 13.753 17.5047 13.8154 16.953 13.7914H16.7893C16.2984 13.7456 15.8484 13.5525 15.3575 13.5214C14.9616 13.4952 14.6163 13.2874 14.2547 13.1434C14.0223 13.1434 13.8554 12.965 13.646 12.8947C13.6092 12.8881 13.5752 12.8708 13.5483 12.8449C13.5214 12.819 13.5029 12.7857 13.495 12.7492C13.4871 12.7127 13.4902 12.6747 13.504 12.64C13.5177 12.6053 13.5416 12.5755 13.5723 12.5543C13.9323 12.2925 14.2874 12.6263 14.6458 12.5641C14.7489 12.5543 14.8568 12.5445 14.9125 12.6574Z" fill="#F0D1B9"/>
<path d="M14.2578 13.1335C14.5147 13.1041 14.7274 13.2611 14.9483 13.3397C15.1692 13.4182 15.346 13.4837 15.5636 13.3921C15.5996 13.3757 15.6699 13.3642 15.6798 13.3806C15.953 13.788 16.4979 13.4575 16.7925 13.7815C15.9072 13.716 15.0252 13.649 14.2578 13.1335Z" fill="#F6B993"/>
<path d="M5.60846 13.708C5.63924 13.7692 5.65328 13.8374 5.64917 13.9057C5.64505 13.974 5.62295 14.0401 5.58505 14.0971C5.54715 14.1541 5.49485 14.2001 5.43344 14.2303C5.37203 14.2605 5.30371 14.274 5.23541 14.2693C4.66597 14.2955 4.10141 14.3936 3.5287 14.3658C3.30289 14.3544 3.07708 14.3544 2.96254 14.1269C2.848 13.8995 3.17852 13.888 3.19816 13.7146C3.57886 13.5516 3.98854 13.467 4.40267 13.4658C4.8168 13.4647 5.22688 13.5471 5.60846 13.708Z" fill="#FCFAF7"/>
<path d="M27.2682 28.2729C26.3845 29.757 25.2588 30.9237 23.4604 31.2412C23.2319 31.2702 23.0019 31.2855 22.7715 31.287C22.6895 31.3004 22.6052 31.2851 22.5331 31.2437C22.461 31.2022 22.4053 31.1372 22.3756 31.0595C22.3101 30.8959 22.4116 30.7715 22.5277 30.6701C23.3181 29.9779 23.8368 29.0861 24.3424 28.1878C24.8186 27.3418 25.0264 26.3976 25.2915 25.4764C25.5282 24.6305 25.5917 23.7456 25.478 22.8746C25.4559 22.5348 25.451 22.194 25.4633 21.8536C25.4633 21.5836 25.4993 21.3087 25.3471 21.0567C25.3291 21.0354 25.3164 21.0101 25.3102 20.9829C25.3041 20.9558 25.3045 20.9275 25.3116 20.9005C25.3186 20.8735 25.3321 20.8486 25.3508 20.828C25.3695 20.8073 25.393 20.7915 25.4191 20.7818C25.5647 20.7262 25.5827 20.8538 25.6286 20.9569C25.809 21.4533 25.9096 21.9752 25.9264 22.5032C25.9886 23.3344 26.1735 24.1772 25.9706 25.0182C25.9526 25.0951 25.9558 25.1933 26.0622 25.2146C26.0857 25.2207 26.1103 25.2215 26.1342 25.2169C26.1581 25.2123 26.1807 25.2024 26.2003 25.188C26.2199 25.1736 26.236 25.155 26.2475 25.1335C26.259 25.1121 26.2655 25.0883 26.2667 25.064C26.5203 23.7419 26.9491 22.459 26.8067 21.0649C26.7167 20.1796 26.6905 19.2796 26.6136 18.3879C26.5727 17.915 26.4025 17.4633 26.4385 16.9773C26.4565 16.7155 26.5269 16.5061 26.7658 16.4259C26.8809 16.3803 27.0075 16.3729 27.1271 16.4047C27.2467 16.4365 27.353 16.5059 27.4302 16.6026C27.8392 17.0657 27.9718 17.6564 28.1452 18.2111C28.4637 19.3152 28.6795 20.4463 28.7899 21.5901C28.8847 22.3065 28.8648 23.0334 28.731 23.7435C28.5674 24.5617 28.4659 25.3979 28.1665 26.1866C28.106 26.3502 28.0634 26.5138 27.9881 26.6775C27.8065 27.0522 27.6233 27.4204 27.7689 27.854C27.4482 27.8065 27.3238 27.9996 27.2682 28.2729Z" fill="#ED8859"/>
<path d="M9.67615 21.9335C9.67615 20.7881 10.0607 19.7294 10.3978 18.6609C10.6416 17.8885 10.8118 17.0884 11.1587 16.3504C11.3156 15.9621 11.5368 15.6031 11.8132 15.2884C11.9761 15.1375 12.1833 15.043 12.404 15.0192C12.6248 14.9953 12.8474 15.0432 13.0388 15.1559C13.3121 15.3326 13.3661 15.6975 13.1239 16.0182C12.0226 17.5154 11.4434 19.227 11.0588 21.0205C10.9116 21.7648 10.6674 22.4866 10.3323 23.1673C10.2816 23.2688 10.2325 23.3833 10.1245 23.398C9.97396 23.4193 9.93305 23.2589 9.87905 23.1624C9.69032 22.7822 9.61966 22.3542 9.67615 21.9335Z" fill="#FDFBF7"/>
<path d="M34.0575 15.6353C35.0393 15.7613 35.6938 16.388 36.1454 17.2634C36.7083 18.3483 36.3679 19.2843 35.6447 20.1531C34.8134 21.1497 33.7171 21.67 32.4817 21.9531C32.1544 22.03 31.8272 22.1347 31.4999 22.2427C31.0254 22.4064 30.8814 22.3033 30.8454 21.8173C30.7587 20.6915 30.6621 19.5673 30.3757 18.4694C30.2972 18.1699 30.2874 17.8934 30.5148 17.6283C31.3248 16.6841 32.2853 15.992 33.5142 15.6958C33.6795 15.6631 33.8464 15.6631 34.0575 15.6353Z" fill="#352219"/>
<path d="M30.2187 20.0255C30.1513 20.2559 30.1215 20.4957 30.1303 20.7356C30.1303 20.8273 30.145 20.9467 30.0174 20.9631C29.8898 20.9795 29.8816 20.8502 29.8538 20.7667C29.6159 19.9769 29.3814 19.1855 29.1501 18.3924C28.975 17.7886 28.8441 17.1717 28.5676 16.6023C28.5561 16.5777 28.53 16.5581 28.5267 16.5319C28.494 16.3372 28.3909 16.0656 28.5692 15.9739C28.7476 15.8823 28.8589 16.1376 28.9701 16.2881C29.4824 17.0203 29.8348 17.8521 30.0043 18.7295C30.0976 19.1599 30.0894 19.6148 30.2187 20.0255Z" fill="#EA8C60"/>
<path d="M14.1792 16.8578C14.1612 17.1425 13.9845 17.4256 13.8781 17.73C13.6589 18.355 13.4216 18.9719 13.2007 19.597C13.1582 19.7181 13.1205 19.8605 12.9896 19.8588C12.8587 19.8572 12.8669 19.6952 12.8587 19.5954C12.7703 18.4958 12.9831 17.478 13.6982 16.6009C13.7352 16.552 13.7872 16.5164 13.8462 16.4996C13.9052 16.4828 13.9681 16.4856 14.0254 16.5076C14.14 16.5453 14.1776 16.6287 14.1792 16.8578Z" fill="#FDF5EB"/>
<path d="M8.40951 17.8165C8.44551 18.0046 8.38987 18.1028 8.20333 17.9801C7.46377 17.4949 6.86856 16.8194 6.48028 16.0247C6.40501 15.8774 6.531 15.8332 6.59645 15.7612C6.69299 15.6549 6.78138 15.7252 6.82556 15.8103C7.15282 16.4534 7.69771 16.9165 8.20661 17.4074C8.30969 17.5105 8.49132 17.6086 8.40951 17.8165Z" fill="#F3D3B8"/>
<path d="M10.7871 28.8062C10.8525 28.8487 10.9114 28.8831 10.9638 28.924C11.8147 29.6112 12.6132 30.3738 13.6392 30.8139C13.7324 30.8532 13.8028 30.9334 13.7456 31.0414C13.6883 31.1494 13.6114 31.0954 13.5345 31.061C12.5003 30.5862 11.5585 29.9319 10.7527 29.1285C10.7142 29.0997 10.6878 29.0576 10.6788 29.0104C10.6697 28.9632 10.6786 28.9143 10.7036 28.8732C10.7167 28.8438 10.7576 28.8274 10.7871 28.8062Z" fill="#623925"/>
<path d="M29.0421 26.9766C28.7541 27.7833 28.2845 28.356 27.7969 28.9156C27.6481 29.0736 27.4902 29.2228 27.324 29.3623C27.2732 29.4081 27.2094 29.4441 27.1456 29.382C27.1354 29.3728 27.1273 29.3615 27.1217 29.349C27.1161 29.3364 27.1133 29.3229 27.1133 29.3091C27.1133 29.2954 27.1161 29.2818 27.1217 29.2693C27.1273 29.2568 27.1354 29.2455 27.1456 29.2363C27.745 28.537 28.3081 27.8073 28.8327 27.0502C28.8556 27.024 28.9079 27.0224 29.0421 26.9766Z" fill="#6F452C"/>
<path d="M14.585 18.2666C14.6176 17.9933 14.708 17.73 14.8501 17.4943C14.9221 17.3863 15.0284 17.2635 15.1871 17.3306C15.3458 17.3977 15.3409 17.5515 15.3082 17.6825C15.2616 17.9491 15.1662 18.2048 15.0268 18.4368C14.958 18.535 14.9253 18.7248 14.742 18.6724C14.5588 18.6201 14.5997 18.4352 14.585 18.2666Z" fill="#FCECD4"/>
<path d="M7.8533 24.4552C7.26095 24.4699 6.18751 23.4391 6.03369 22.7485C6.65059 23.2574 7.15296 23.8874 7.8533 24.4552Z" fill="#7B533B"/>
<path d="M26.6073 15.0301C26.5571 15.0454 26.5032 15.0424 26.455 15.0217C26.4068 15.0011 26.3675 14.9641 26.3439 14.9172C26.2981 14.8059 26.4142 14.7536 26.4862 14.7061C26.6491 14.5885 26.8179 14.4792 26.9919 14.3789C27.0386 14.3496 27.0945 14.3386 27.1488 14.348C27.2032 14.3573 27.2522 14.3864 27.2864 14.4296C27.365 14.5278 27.275 14.5932 27.2357 14.6799C27.1885 14.8027 27.0998 14.9049 26.985 14.9689C26.8701 15.0329 26.7365 15.0546 26.6073 15.0301Z" fill="#FCEAD5"/>
<path d="M11.0473 27.9046C11.0212 28.0682 10.9394 28.1697 10.7757 28.1451C10.6743 28.1423 10.5773 28.103 10.5025 28.0345C10.4277 27.966 10.38 27.8728 10.3683 27.7721C10.3568 27.6297 10.5107 27.5822 10.6367 27.6084C10.8216 27.6444 11.013 27.6755 11.0473 27.9046Z" fill="#875C45"/>
<path d="M29.2795 25.4518C29.1519 25.4191 29.0144 25.37 29.0537 25.2195C29.0679 25.1173 29.1165 25.0231 29.1914 24.9523C29.2664 24.8815 29.3633 24.8383 29.4661 24.83C29.6117 24.8202 29.7083 24.8889 29.6903 25.0476C29.6624 25.2882 29.4759 25.3684 29.2795 25.4518Z" fill="#260803"/>
<path d="M27.2684 28.2729C26.9738 28.0848 27.2684 27.9931 27.3453 27.8933C27.4598 27.7591 27.6022 27.566 27.7707 27.8524L27.2684 28.2729Z" fill="#833C1E"/>
<path d="M21.9583 13.2171C21.8045 13.2024 21.631 13.2531 21.6032 13.1058C21.5754 12.9585 21.7783 12.9831 21.8699 12.9209C22.0369 12.828 22.2238 12.7769 22.4148 12.772C23.1594 12.6836 23.7991 12.3367 24.4422 11.9882C24.6418 11.8786 24.9331 11.6609 25.0804 11.9408C25.2276 12.2206 24.8938 12.3629 24.6729 12.4775C23.8106 12.9242 22.8746 13.1042 21.9583 13.2171Z" fill="#FCEAD9"/>
<path d="M14.9123 12.6572C14.8206 12.6294 14.711 12.6457 14.6439 12.5541C14.5147 12.4085 14.1268 12.3905 14.2446 12.163C14.3625 11.9356 14.621 12.1892 14.8141 12.2432C14.9515 12.2808 15.1266 12.3021 15.1413 12.4919C15.1593 12.6556 15.0105 12.6277 14.9123 12.6572Z" fill="#896145"/>
<path d="M14.8962 11.5723C15.0271 11.5821 15.1416 11.6164 15.1498 11.7686C15.1498 11.8734 15.1007 11.9584 14.9862 11.9503C14.9263 11.9433 14.8698 11.9187 14.8238 11.8797C14.7778 11.8407 14.7443 11.7889 14.7276 11.731C14.69 11.6099 14.8029 11.5903 14.8962 11.5723Z" fill="#A46A4E"/>
<path d="M31.8078 16.9166C32.229 16.6202 32.6873 16.3803 33.1709 16.2031C34.4931 15.794 35.6254 16.442 36.0115 17.7756C36.2832 18.6936 35.9166 19.3841 35.3783 20.0452C35.2048 20.237 35.0207 20.4189 34.8268 20.5901C34.0414 21.2201 33.1104 21.5277 32.1515 21.7568C31.9518 21.8042 31.7898 21.9302 31.5771 21.9433C31.3644 21.9564 31.2498 21.9171 31.2253 21.6766C31.1418 20.8584 31.0698 20.0403 30.9438 19.2221C30.9012 18.9294 30.8356 18.6405 30.7475 18.3582C30.6346 18.0096 30.8064 17.8198 30.9913 17.6529C31.2455 17.3882 31.5184 17.1422 31.8078 16.9166Z" fill="#FEFEFE"/>
<path d="M31.7667 16.9019C31.5556 17.2013 31.2545 17.4091 30.991 17.6578C30.8846 17.7405 30.8062 17.854 30.7667 17.9829C30.7271 18.1117 30.7283 18.2497 30.7701 18.3778C31.0467 19.4169 31.1416 20.4887 31.2349 21.5556C31.2643 21.8976 31.3723 21.9254 31.662 21.8419C32.7468 21.5261 33.8333 21.2152 34.7857 20.5754C34.4486 20.9894 33.9675 21.1661 33.493 21.3674C32.8548 21.639 32.1839 21.783 31.5196 21.9859C31.2234 22.0759 31.1138 21.9466 31.1023 21.6734C31.0453 20.5064 30.886 19.3467 30.6262 18.2076C30.6037 18.1358 30.6009 18.0593 30.6178 17.9859C30.6348 17.9126 30.671 17.8451 30.7227 17.7904C31.0532 17.4631 31.3429 17.1015 31.7667 16.9019Z" fill="#96928E"/>
</svg>
