<svg width="197" height="76" viewBox="0 0 197 76" fill="none" xmlns="http://www.w3.org/2000/svg">
<path d="M46.7985 43.8141C46.4085 43.8141 46.1335 43.7343 45.9722 43.5734C45.8247 43.4125 45.751 43.1582 45.751 42.809V31.171C45.751 30.8231 45.831 30.5687 45.9922 30.4078C46.1547 30.2333 46.4222 30.146 46.7985 30.146H51.736C53.6147 30.146 54.9985 30.5413 55.886 31.3319C56.7722 32.1224 57.2147 33.3021 57.2147 34.8695C57.2147 36.4245 56.7722 37.5966 55.886 38.3872C55.0122 39.1641 53.6285 39.5531 51.736 39.5531H49.821V42.809C49.821 43.1582 49.7397 43.4125 49.5785 43.5734C49.4172 43.7343 49.1422 43.8141 48.7535 43.8141H46.7985ZM51.4122 36.639C51.9622 36.639 52.3872 36.4918 52.6822 36.1963C52.991 35.902 53.1447 35.4606 53.1447 34.8695C53.1447 34.2672 52.991 33.8183 52.6822 33.5228C52.386 33.2285 51.9635 33.0814 51.4122 33.0814H49.821V36.639H51.4122ZM61.9747 44.1158C60.7122 44.1158 59.6972 43.7143 58.931 42.91C58.1785 42.0932 57.8035 40.9473 57.8035 39.4733C57.8035 38.3473 58.0585 37.3622 58.5685 36.518C59.0965 35.6704 59.8593 34.9934 60.7647 34.569C61.7185 34.0989 62.8135 33.8645 64.0485 33.8645C65.0697 33.8645 65.9697 33.9792 66.7485 34.2061C67.5174 34.4104 68.251 34.729 68.9247 35.1513V43.1918C68.9247 43.4462 68.8785 43.6133 68.7847 43.6943C68.6897 43.7742 68.5022 43.8141 68.2197 43.8141H66.1647C66.0475 43.8199 65.9305 43.7994 65.8222 43.7542C65.7351 43.693 65.6657 43.61 65.621 43.5135L65.3585 42.91C64.9713 43.3238 64.4866 43.6345 63.9485 43.8141C63.411 44.0161 62.7535 44.1158 61.9735 44.1158H61.9747ZM63.4847 41.3825C64.0097 41.3825 64.4185 41.2553 64.7135 41.0009C65.0097 40.7465 65.1572 40.3836 65.1572 39.916V36.7799C64.9022 36.6589 64.5797 36.5991 64.1897 36.5991C63.4772 36.5991 62.9072 36.846 62.4772 37.3423C62.061 37.8386 61.8522 38.5344 61.8522 39.4322C61.8522 40.7328 62.3972 41.3825 63.4847 41.3825ZM71.7297 43.8141C71.3397 43.8141 71.0647 43.7343 70.9035 43.5734C70.741 43.4125 70.661 43.1582 70.661 42.809V34.791C70.661 34.549 70.7022 34.3882 70.7822 34.3084C70.876 34.2149 71.0647 34.1675 71.346 34.1675H73.421C73.5835 34.1675 73.7035 34.1949 73.7835 34.2485C73.8785 34.2884 73.9322 34.3682 73.946 34.4892L74.046 35.0927C74.4222 34.7174 74.9135 34.4219 75.5172 34.2074C76.1764 33.9726 76.8723 33.8569 77.5722 33.8657C78.6597 33.8657 79.541 34.1737 80.2122 34.791C80.8835 35.3932 81.2197 36.2911 81.2197 37.4844V42.8102C81.2197 43.1594 81.1385 43.4138 80.9772 43.5746C80.8297 43.7355 80.561 43.8153 80.1722 43.8153H78.2172C77.8272 43.8153 77.546 43.7355 77.371 43.5746C77.2097 43.4138 77.1297 43.1594 77.1297 42.8102V37.745C77.1297 37.3435 77.0422 37.0555 76.8672 36.8809C76.6922 36.7063 76.4172 36.619 76.0422 36.619C75.6385 36.619 75.316 36.7275 75.0735 36.942C74.846 37.1565 74.731 37.4508 74.731 37.8261V42.8102C74.731 43.1594 74.651 43.4138 74.4897 43.5746C74.3422 43.7355 74.0735 43.8153 73.6835 43.8153H71.7297V43.8141ZM88.341 44.1158C86.461 44.1158 85.0097 43.6806 83.9897 42.8102C82.9685 41.9374 82.4585 40.6717 82.4585 39.0107C82.4585 37.9919 82.6935 37.0941 83.1635 36.3173C83.6335 35.5404 84.3122 34.9369 85.1985 34.5091C86.0985 34.0789 87.1597 33.8645 88.3822 33.8645C89.3085 33.8645 90.0872 33.9517 90.7197 34.1263C91.3635 34.3009 91.9347 34.569 92.4322 34.9306C92.5797 35.0241 92.6535 35.1451 92.6535 35.2922C92.6535 35.3995 92.5997 35.5404 92.491 35.7137L91.666 37.1415C91.5722 37.3285 91.4585 37.4233 91.3235 37.4233C91.2422 37.4233 91.116 37.3697 90.941 37.2612C90.6197 37.0539 90.2747 36.8857 89.9135 36.7599C89.6035 36.6527 89.2135 36.5978 88.7447 36.5978C88.0722 36.5978 87.5285 36.8135 87.1122 37.2413C86.7097 37.6702 86.5072 38.26 86.5072 39.0107C86.5072 39.7751 86.716 40.3637 87.1322 40.7789C87.5485 41.1817 88.1197 41.3825 88.8447 41.3825C89.2747 41.3825 89.6647 41.3226 90.0135 41.2016C90.3635 41.0807 90.7185 40.9136 91.0822 40.6991C91.2697 40.5919 91.4035 40.5383 91.4847 40.5383C91.606 40.5383 91.7135 40.6318 91.8072 40.8201L92.7135 42.3663C92.781 42.501 92.8135 42.6082 92.8135 42.6893C92.8135 42.809 92.7335 42.9237 92.5722 43.031C92.0097 43.3926 91.391 43.6607 90.7185 43.8353C90.061 44.0223 89.2685 44.1158 88.341 44.1158ZM97.9235 44.1158C96.661 44.1158 95.646 43.7143 94.881 42.91C94.1285 42.0932 93.7522 40.9473 93.7522 39.4733C93.7522 38.3473 94.0072 37.3622 94.5185 36.518C95.0465 35.6704 95.8093 34.9934 96.7147 34.569C97.6685 34.0989 98.7622 33.8645 99.9985 33.8645C101.02 33.8645 101.92 33.9792 102.698 34.2061C103.467 34.4104 104.201 34.7291 104.875 35.1513V43.1918C104.875 43.4462 104.827 43.6133 104.733 43.6943C104.64 43.7742 104.451 43.8141 104.17 43.8141H102.115C101.998 43.8199 101.88 43.7994 101.772 43.7542C101.685 43.6931 101.615 43.6101 101.57 43.5135L101.307 42.91C100.92 43.3236 100.436 43.6343 99.8985 43.8141C99.361 44.0161 98.7022 44.1158 97.9235 44.1158ZM99.4347 41.3825C99.9585 41.3825 100.368 41.2553 100.663 41.0009C100.96 40.7465 101.107 40.3836 101.107 39.916V36.7799C100.851 36.6589 100.53 36.5991 100.14 36.5991C99.4272 36.5991 98.8572 36.846 98.4272 37.3423C98.011 37.8386 97.8022 38.5344 97.8022 39.4322C97.8022 40.7328 98.346 41.3825 99.4347 41.3825ZM117.531 43.0509C117.622 43.1496 117.672 43.2786 117.672 43.4125C117.674 43.4683 117.664 43.5239 117.644 43.5758C117.623 43.6277 117.592 43.6748 117.552 43.7143C117.46 43.7848 117.346 43.8202 117.23 43.8141H114.106C113.918 43.8141 113.777 43.8016 113.683 43.7742C113.583 43.7178 113.494 43.6429 113.421 43.5534L110.681 39.835V42.809C110.681 43.1582 110.601 43.4125 110.438 43.5734C110.278 43.7343 110.002 43.8141 109.613 43.8141H107.658C107.27 43.8141 106.993 43.7343 106.833 43.5734C106.685 43.4125 106.611 43.1582 106.611 42.809V31.171C106.611 30.8231 106.691 30.5687 106.852 30.4078C107.015 30.2333 107.282 30.146 107.658 30.146H109.613C110.002 30.146 110.278 30.2333 110.438 30.4078C110.601 30.5687 110.681 30.8231 110.681 31.171V37.9046L113.341 34.448C113.408 34.3527 113.498 34.2766 113.603 34.2273C113.739 34.1804 113.883 34.1596 114.026 34.1662H117.148C117.283 34.1662 117.383 34.2061 117.451 34.2872C117.492 34.3217 117.524 34.365 117.545 34.4139C117.566 34.4628 117.575 34.5159 117.572 34.569C117.572 34.7029 117.522 34.8319 117.431 34.9306L113.985 38.8711L117.532 43.0509H117.531ZM124.075 44.1158C122.946 44.1158 121.938 43.9288 121.052 43.5534C120.211 43.2038 119.49 42.6171 118.977 41.865C118.465 41.1144 118.211 40.1966 118.211 39.1117C118.211 37.4096 118.695 36.109 119.661 35.2112C120.628 34.3134 122.018 33.8645 123.832 33.8645C125.606 33.8645 126.948 34.3071 127.862 35.1912C128.79 36.0629 129.252 37.2749 129.252 38.8299C129.252 39.4995 128.957 39.835 128.365 39.835H122.04C122.04 40.4111 122.253 40.8537 122.683 41.1617C123.127 41.4697 123.791 41.6231 124.678 41.6231C125.228 41.6231 125.686 41.577 126.048 41.4835C126.425 41.3762 126.801 41.2216 127.177 41.0208C127.279 40.9713 127.388 40.9376 127.5 40.9211C127.62 40.9211 127.721 41.0009 127.802 41.1617L128.487 42.4474C128.553 42.582 128.587 42.6818 128.587 42.7491C128.587 42.8701 128.506 42.9836 128.346 43.0908C127.795 43.4524 127.171 43.7143 126.471 43.8752C125.683 44.0452 124.879 44.1259 124.073 44.1158H124.075ZM125.625 37.8448C125.625 37.336 125.478 36.9407 125.182 36.6589C124.886 36.3771 124.445 36.2374 123.852 36.2374C123.262 36.2374 122.812 36.3846 122.502 36.6789C122.193 36.9607 122.04 37.3485 122.04 37.8448H125.625ZM136.158 44.1158C135.03 44.1158 133.962 44.0024 132.955 43.7742C131.947 43.5335 131.135 43.1981 130.516 42.7691C130.288 42.622 130.175 42.4686 130.175 42.3077C130.175 42.1992 130.213 42.0858 130.295 41.9648L131.282 40.3973C131.39 40.2365 131.497 40.1567 131.605 40.1567C131.672 40.1567 131.786 40.2028 131.947 40.2976C132.481 40.5941 133.049 40.8236 133.64 40.9809C134.271 41.1555 134.896 41.2428 135.513 41.2428C136.145 41.2428 136.608 41.148 136.903 40.9597C137.212 40.7727 137.367 40.4709 137.367 40.0557C137.373 39.8681 137.329 39.6822 137.241 39.5165C137.153 39.3508 137.022 39.2108 136.863 39.1105C136.541 38.8835 135.93 38.5955 135.03 38.2463C133.672 37.7376 132.612 37.1677 131.846 36.538C131.095 35.8958 130.718 35.0241 130.718 33.9256C130.718 32.5988 131.195 31.5875 132.148 30.8904C133.102 30.1934 134.372 29.8455 135.957 29.8455C137.058 29.8455 137.998 29.9452 138.777 30.146C139.57 30.333 140.242 30.6286 140.792 31.0313C141.021 31.2059 141.135 31.3655 141.135 31.5127C141.127 31.6292 141.085 31.741 141.015 31.8344L140.027 33.4031C139.906 33.5639 139.798 33.6437 139.705 33.6437C139.637 33.6437 139.522 33.5964 139.361 33.5028C138.582 32.9941 137.656 32.7397 136.581 32.7397C136.005 32.7397 135.56 32.8332 135.251 33.0203C134.942 33.2073 134.787 33.5165 134.787 33.9455C134.787 34.2398 134.868 34.4817 135.03 34.6688C135.191 34.8558 135.406 35.0241 135.675 35.1713C135.957 35.306 136.386 35.4793 136.965 35.695L137.347 35.8347C138.341 36.2237 139.12 36.5991 139.683 36.9607C140.262 37.3098 140.698 37.7438 140.993 38.2663C141.29 38.7763 141.437 39.4197 141.437 40.1966C141.437 41.3887 140.987 42.3414 140.087 43.0509C139.2 43.7617 137.891 44.1158 136.158 44.1158ZM145.718 43.8141C145.517 43.8141 145.362 43.7816 145.255 43.7143C145.147 43.647 145.067 43.5135 145.013 43.3115L142.415 34.6289C142.392 34.571 142.378 34.51 142.373 34.448C142.373 34.261 142.508 34.1662 142.776 34.1662H145.436C145.611 34.1662 145.738 34.1999 145.818 34.266C145.9 34.3208 145.953 34.4144 145.98 34.5478L147.068 39.1117L148.438 35.4331C148.48 35.3121 148.549 35.2021 148.64 35.1114C148.721 35.0441 148.855 35.0117 149.043 35.0117H150.312C150.5 35.0117 150.628 35.0441 150.695 35.1114C150.776 35.165 150.85 35.2723 150.917 35.4331L152.266 39.1117L153.375 34.5478C153.4 34.4405 153.456 34.3429 153.536 34.2672C153.603 34.1999 153.725 34.1675 153.898 34.1675H156.578C156.847 34.1675 156.981 34.2597 156.981 34.448C156.981 34.4879 156.968 34.5478 156.942 34.6289L154.322 43.3115C154.268 43.5135 154.187 43.6482 154.081 43.7143C153.986 43.7804 153.838 43.8141 153.637 43.8141H151.662C151.473 43.8141 151.333 43.7816 151.24 43.7143C151.126 43.6029 151.042 43.4642 150.997 43.3115L149.668 39.6741L148.337 43.3115C148.283 43.4986 148.203 43.6332 148.096 43.7143C148.001 43.7804 147.861 43.8141 147.672 43.8141H145.718ZM162.09 44.1158C160.827 44.1158 159.812 43.7143 159.047 42.91C158.295 42.0932 157.918 40.9473 157.918 39.4733C157.918 38.3473 158.173 37.3622 158.683 36.518C159.212 35.6707 159.975 34.9938 160.88 34.569C161.833 34.0989 162.928 33.8645 164.165 33.8645C165.185 33.8645 166.085 33.9792 166.863 34.2061C167.633 34.4105 168.367 34.7292 169.041 35.1513V43.1918C169.041 43.4462 168.993 43.6133 168.9 43.6943C168.805 43.7742 168.617 43.8141 168.335 43.8141H166.28C166.163 43.8198 166.045 43.7994 165.937 43.7542C165.85 43.6928 165.781 43.6098 165.736 43.5135L165.473 42.91C165.087 43.3241 164.602 43.6349 164.063 43.8141C163.526 44.0161 162.868 44.1158 162.09 44.1158ZM163.6 41.3825C164.125 41.3825 164.533 41.2553 164.828 41.0009C165.125 40.7465 165.272 40.3836 165.272 39.916V36.7799C165.017 36.6589 164.695 36.5991 164.306 36.5991C163.593 36.5991 163.023 36.846 162.592 37.3423C162.176 37.8386 161.967 38.5344 161.967 39.4322C161.967 40.7328 162.512 41.3825 163.6 41.3825ZM171.823 47.8742C171.435 47.8742 171.16 47.7944 170.998 47.6335C170.851 47.4727 170.776 47.2183 170.776 46.8691V35.3521C171.381 34.9231 172.14 34.569 173.053 34.2872C173.981 34.0036 174.945 33.8611 175.915 33.8645C179.971 33.8645 182 35.5803 182 39.0107C182 40.5644 181.57 41.8039 180.71 42.7292C179.851 43.6532 178.635 44.1158 177.062 44.1158C176.62 44.1158 176.19 44.0622 175.773 43.955C175.414 43.8674 175.073 43.7181 174.766 43.5135V46.8691C174.766 47.2183 174.685 47.4727 174.523 47.6335C174.362 47.7944 174.087 47.8742 173.698 47.8742H171.823ZM176.197 41.4024C176.775 41.4024 177.203 41.1879 177.486 40.759C177.782 40.3175 177.93 39.7277 177.93 38.9908C177.93 38.1191 177.755 37.5094 177.406 37.1615C177.07 36.7998 176.546 36.619 175.833 36.619C175.377 36.619 175.015 36.6789 174.746 36.7998V39.9958C174.746 40.451 174.873 40.8001 175.128 41.0408C175.385 41.2815 175.741 41.4024 176.197 41.4024Z" fill="#271D17" fill-opacity="0.75"/>
<path fill-rule="evenodd" clip-rule="evenodd" d="M19.0963 27.8815C19.0095 27.4153 19.021 26.9363 19.1303 26.4749C19.2395 26.0134 19.4439 25.5798 19.7306 25.2017C20.0172 24.8235 20.3797 24.5091 20.795 24.2785C21.2103 24.048 21.6692 23.9064 22.1424 23.8627C22.6157 23.819 23.0928 23.8742 23.5435 24.0248C23.9941 24.1754 24.4083 24.4181 24.7597 24.7373C25.111 25.0566 25.3918 25.4454 25.584 25.879C25.7763 26.3126 25.8758 26.7814 25.8763 27.2555V31.4603C26.8155 31.3941 27.7581 31.3929 28.6975 31.4566V27.2543C28.6981 26.7802 28.7978 26.3115 28.9902 25.878C29.1825 25.4445 29.4634 25.0558 29.8148 24.7367C30.1662 24.4176 30.5804 24.175 31.031 24.0245C31.4816 23.8741 31.9588 23.819 32.4319 23.8627C32.9051 23.9065 33.3639 24.0482 33.7791 24.2788C34.1943 24.5094 34.5568 24.8238 34.8434 25.2019C35.1299 25.5801 35.3343 26.0136 35.4435 26.475C35.5527 26.9364 35.5643 27.4154 35.4775 27.8815L34.5525 32.8245C37.7275 34.2074 40.1275 36.609 40.1275 39.628V41.4535C40.1275 43.9363 38.4825 46.015 36.1813 47.4178C33.8613 48.8306 30.7238 49.6711 27.3138 49.6711C23.9038 49.6711 20.7663 48.8306 18.4475 47.4178C16.1463 46.0137 14.5 43.9363 14.5 41.4535V39.6292C14.5 36.6265 16.8763 34.2336 20.025 32.8482L19.0963 27.8827V27.8815ZM33.3663 33.4742L34.4488 27.6894C34.508 27.3663 34.4992 27.0344 34.4229 26.7149C34.3465 26.3953 34.2043 26.0951 34.0054 25.8334C33.8064 25.5716 33.555 25.3541 33.2671 25.1946C32.9792 25.035 32.6612 24.937 32.3333 24.9068C32.0055 24.8766 31.6748 24.9148 31.3625 25.0189C31.0502 25.1231 30.7631 25.291 30.5194 25.5119C30.2757 25.7329 30.0808 26.002 29.947 26.3022C29.8133 26.6023 29.7436 26.927 29.7425 27.2555V32.6063C28.9371 32.5027 28.1258 32.4519 27.3138 32.4541C26.4833 32.4543 25.6536 32.5076 24.83 32.6137V27.2555C24.8289 26.927 24.7592 26.6023 24.6255 26.3022C24.4917 26.002 24.2968 25.7329 24.0531 25.5119C23.8094 25.291 23.5223 25.1231 23.21 25.0189C22.8977 24.9148 22.5671 24.8766 22.2392 24.9068C21.9113 24.937 21.5933 25.035 21.3054 25.1946C21.0175 25.3541 20.7661 25.5716 20.5671 25.8334C20.3682 26.0951 20.226 26.3953 20.1496 26.7149C20.0733 27.0344 20.0645 27.3663 20.1238 27.6894L21.2112 33.4929C17.815 34.7523 15.5462 37.028 15.5462 39.628V41.4535C15.5462 45.4164 20.815 48.6286 27.3138 48.6286C33.8138 48.6286 39.0825 45.4164 39.0825 41.4535V39.6292C39.0825 37.0156 36.7913 34.7286 33.3663 33.4754V33.4742Z" fill="#633001"/>
<path d="M39.0821 41.4547C39.0821 45.4164 33.8134 48.6286 27.3134 48.6286C20.8134 48.6286 15.5459 45.4164 15.5459 41.4547V39.6279H39.0821V41.4547Z" fill="#FEDC90"/>
<path fill-rule="evenodd" clip-rule="evenodd" d="M20.1246 27.6894C20.0643 27.3659 20.0723 27.0334 20.1481 26.7131C20.2238 26.3928 20.3657 26.0918 20.5647 25.8293C20.7636 25.5668 21.0152 25.3486 21.3035 25.1886C21.5917 25.0285 21.9103 24.9302 22.2387 24.8999C22.5672 24.8696 22.8984 24.908 23.2112 25.0126C23.524 25.1172 23.8114 25.2857 24.0552 25.5074C24.2991 25.729 24.4938 25.999 24.6272 26.3C24.7605 26.601 24.8295 26.9264 24.8296 27.2555V32.6137C26.46 32.4004 28.1111 32.3979 29.7421 32.6062V27.2555C29.7433 26.927 29.8129 26.6023 29.9467 26.3021C30.0804 26.002 30.2754 25.7328 30.5191 25.5119C30.7628 25.291 31.0499 25.1231 31.3622 25.0189C31.6745 24.9147 32.0051 24.8765 32.333 24.9068C32.6609 24.937 32.9789 25.035 33.2668 25.1945C33.5546 25.354 33.806 25.5716 34.005 25.8333C34.204 26.0951 34.3462 26.3953 34.4225 26.7148C34.4988 27.0344 34.5077 27.3663 34.4484 27.6894L33.3659 33.4729C36.7909 34.7273 39.0821 37.0143 39.0821 39.6279C39.0821 43.5896 33.8134 46.8018 27.3134 46.8018C20.8134 46.8018 15.5459 43.5896 15.5459 39.6279C15.5459 37.028 17.8134 34.751 21.2096 33.4928L20.1234 27.6894H20.1246Z" fill="#D1884F"/>
<path d="M24.0447 39.1054C24.0447 40.1866 23.4597 41.0632 22.7372 41.0632C22.0159 41.0632 21.4297 40.1866 21.4297 39.1054C21.4297 38.0255 22.0159 37.1489 22.7372 37.1489C23.4597 37.1489 24.0447 38.0255 24.0447 39.1067V39.1054ZM33.0672 39.1054C33.0672 40.1866 32.4822 41.0632 31.7597 41.0632C31.0372 41.0632 30.4522 40.1866 30.4522 39.1054C30.4522 38.0255 31.0372 37.1489 31.7597 37.1489C32.4822 37.1489 33.0672 38.0255 33.0672 39.1067V39.1054Z" fill="#633001"/>
</svg>
