<svg width="197" height="76" viewBox="0 0 197 76" fill="none" xmlns="http://www.w3.org/2000/svg">
<path d="M70.7452 45.0224C69.7877 45.0224 68.9264 44.859 68.1614 44.5311C67.3952 44.1906 66.7939 43.713 66.3564 43.0995C65.9189 42.486 65.7002 41.769 65.7002 40.951H68.2027C68.2577 41.5645 68.4964 42.0695 68.9202 42.4648C69.3577 42.8601 69.9664 43.0584 70.7452 43.0584C71.5514 43.0584 72.1802 42.8676 72.6327 42.4848C73.0827 42.0895 73.3077 41.5857 73.3077 40.9722C73.3077 40.4946 73.1652 40.1056 72.8777 39.805C72.5884 39.4949 72.23 39.2569 71.8314 39.1105C71.2685 38.8988 70.6933 38.721 70.1089 38.578C69.1802 38.3324 68.4214 38.0867 67.8339 37.8423C67.2499 37.5757 66.742 37.1676 66.3564 36.6552C65.9464 36.124 65.7414 35.4144 65.7414 34.5278C65.7414 33.7098 65.9464 32.9941 66.3564 32.3793C66.7664 31.7658 67.3414 31.2957 68.0789 30.9677C68.8164 30.641 69.6714 30.4777 70.6414 30.4777C72.0227 30.4777 73.1514 30.8256 74.0264 31.5214C74.9139 32.2022 75.4064 33.1425 75.5014 34.3433H72.9189C72.8777 33.8258 72.6314 33.3831 72.1814 33.014C71.7289 32.6462 71.1352 32.4616 70.3964 32.4616C69.7264 32.4616 69.1802 32.6324 68.7564 32.9729C68.3314 33.3145 68.1202 33.8046 68.1202 34.4455C68.1202 34.882 68.2502 35.2436 68.5102 35.5304C68.7827 35.8035 69.1252 36.0217 69.5352 36.1851C69.9452 36.3484 70.5064 36.5255 71.2164 36.7163C72.1602 36.9756 72.9252 37.235 73.5139 37.4944C74.1139 37.7525 74.6214 38.1553 75.0314 38.7015C75.4552 39.2327 75.6664 39.9484 75.6664 40.8487C75.6664 41.572 75.4689 42.2541 75.0714 42.8938C74.6889 43.536 74.1214 44.0535 73.3702 44.45C72.6327 44.8316 71.7577 45.0224 70.7452 45.0224ZM88.6577 33.6063V44.879H86.3202V43.5497C85.9305 44.0287 85.431 44.4072 84.8639 44.6533C84.2764 44.9126 83.6477 45.0423 82.9764 45.0423C82.0889 45.0423 81.2889 44.859 80.5777 44.4899C79.8814 44.1221 79.3277 43.5759 78.9177 42.8539C78.5202 42.1306 78.3227 41.2578 78.3227 40.2352V33.6076H80.6402V39.8873C80.6402 40.8974 80.8927 41.6742 81.3989 42.2192C81.9039 42.7516 82.5952 43.0172 83.4689 43.0172C84.3439 43.0172 85.0352 42.7516 85.5402 42.2192C86.0602 41.6742 86.3202 40.8974 86.3202 39.8873V33.6076H88.6577V33.6063ZM95.8439 45.0635C94.9552 45.0635 94.1552 44.9064 93.4439 44.5922C92.7464 44.2655 92.1939 43.829 91.7827 43.2828C91.3797 42.7435 91.1508 42.0946 91.1264 41.4224H93.5464C93.5877 41.8987 93.8127 42.3015 94.2239 42.6282C94.6477 42.9424 95.1739 43.0995 95.8027 43.0995C96.4589 43.0995 96.9652 42.9761 97.3202 42.7304C97.6889 42.4723 97.8739 42.1444 97.8739 41.7491C97.8739 41.3263 97.6689 41.0133 97.2577 40.8076C96.8614 40.6031 96.2264 40.3786 95.3514 40.133C94.6483 39.9489 93.9567 39.7237 93.2802 39.4584C92.7431 39.2375 92.2653 38.8941 91.8852 38.4558C91.5027 38.0056 91.3114 37.4121 91.3114 36.6764C91.3114 36.0753 91.4889 35.5292 91.8452 35.0391C92.2002 34.5353 92.7064 34.1388 93.3627 33.8532C94.0314 33.5664 94.7977 33.423 95.6589 33.423C96.9439 33.423 97.9764 33.751 98.7552 34.4056C99.5477 35.0466 99.9727 35.9257 100.026 37.0442H97.6889C97.6477 36.5392 97.4427 36.1377 97.0739 35.8372C96.7052 35.5379 96.2052 35.387 95.5764 35.387C94.9614 35.387 94.4889 35.503 94.1614 35.7349C94.0081 35.8342 93.8826 35.9708 93.7966 36.1317C93.7107 36.2927 93.6672 36.4728 93.6702 36.6552C93.6702 36.9545 93.7789 37.2076 93.9977 37.4121C94.2164 37.6166 94.4827 37.7799 94.7977 37.9034C95.1127 38.0119 95.5764 38.1553 96.1927 38.3324C97.0127 38.5506 97.6827 38.7763 98.2014 39.0082C98.7307 39.2231 99.2017 39.5593 99.5764 39.9896C99.9577 40.426 100.156 41.0059 100.17 41.7291C100.17 42.3701 99.9927 42.9424 99.6377 43.4474C99.2814 43.9512 98.7752 44.3465 98.1202 44.6333C97.4777 44.9201 96.7189 45.0635 95.8439 45.0635ZM108.54 33.423C109.403 33.423 110.168 33.6076 110.838 33.9754C111.52 34.3433 112.054 34.8895 112.438 35.6127C112.833 36.336 113.031 37.2088 113.031 38.2314V44.879H110.714V38.578C110.714 37.568 110.461 36.7986 109.955 36.2661C109.45 35.7212 108.759 35.4481 107.884 35.4481C107.009 35.4481 106.313 35.7212 105.793 36.2661C105.286 36.7986 105.034 37.5692 105.034 38.578V44.879H102.696V29.7407H105.034V34.9156C105.438 34.4337 105.951 34.0552 106.531 33.8121C107.168 33.5487 107.851 33.4163 108.54 33.423ZM117.203 32.1137C116.779 32.1137 116.424 31.9703 116.136 31.6847C115.996 31.5462 115.885 31.3804 115.81 31.1974C115.736 31.0145 115.7 30.8183 115.705 30.6211C115.705 30.1971 115.849 29.843 116.136 29.5574C116.424 29.2706 116.779 29.1272 117.203 29.1272C117.613 29.1272 117.961 29.2706 118.249 29.5574C118.536 29.8442 118.679 30.1983 118.679 30.6211C118.679 31.0438 118.535 31.3979 118.249 31.6847C118.113 31.8237 117.95 31.9334 117.77 32.0072C117.59 32.081 117.397 32.1172 117.203 32.1137ZM118.351 33.6076V44.879H116.014V33.6063H118.351V33.6076ZM126.116 45.0224C125.159 45.0224 124.298 44.859 123.533 44.5311C122.766 44.1906 122.165 43.713 121.728 43.0995C121.29 42.486 121.071 41.769 121.071 40.951H123.574C123.628 41.5645 123.868 42.0695 124.291 42.4648C124.729 42.8601 125.336 43.0584 126.116 43.0584C126.923 43.0584 127.551 42.8676 128.003 42.4848C128.454 42.0895 128.679 41.5857 128.679 40.9722C128.679 40.4946 128.536 40.1056 128.249 39.805C127.96 39.495 127.601 39.257 127.203 39.1105C126.64 38.8987 126.065 38.7209 125.48 38.578C124.551 38.3324 123.793 38.0867 123.205 37.8423C122.621 37.5757 122.113 37.1676 121.728 36.6552C121.318 36.124 121.113 35.4144 121.113 34.5278C121.113 33.7098 121.318 32.9941 121.728 32.3793C122.138 31.7658 122.713 31.2957 123.45 30.9677C124.188 30.641 125.043 30.4777 126.014 30.4777C127.394 30.4777 128.523 30.8256 129.398 31.5214C130.286 32.2022 130.778 33.1425 130.874 34.3433H128.29C128.249 33.8258 128.003 33.3831 127.551 33.014C127.1 32.6462 126.506 32.4616 125.768 32.4616C125.098 32.4616 124.551 32.6324 124.126 32.9729C123.704 33.3145 123.491 33.8046 123.491 34.4455C123.491 34.882 123.621 35.2436 123.881 35.5304C124.154 35.8035 124.496 36.0217 124.906 36.1851C125.316 36.3484 125.876 36.5255 126.588 36.7163C127.531 36.9756 128.296 37.235 128.885 37.4944C129.486 37.7525 129.991 38.1553 130.401 38.7015C130.826 39.2327 131.038 39.9484 131.038 40.8487C131.038 41.572 130.839 42.2541 130.443 42.8938C130.06 43.536 129.493 44.0535 128.741 44.45C128.003 44.8316 127.128 45.0224 126.116 45.0224ZM148.971 33.6063L145.464 44.879H143.004L140.728 36.5529L138.451 44.879H135.99L132.463 33.6063H134.841L137.2 42.6693L139.599 33.6076H142.04L144.336 42.6282L146.674 33.6076H148.971V33.6063ZM149.939 39.1928C149.939 38.0605 150.171 37.0579 150.636 36.1851C151.114 35.3122 151.756 34.6363 152.564 34.16C153.381 33.6703 154.317 33.4157 155.27 33.4243C156.159 33.4243 156.931 33.6001 157.588 33.9555C158.258 34.2959 158.79 34.7261 159.186 35.2436V33.6076H161.545V44.879H159.186V43.2018C158.79 43.733 158.25 44.1769 157.566 44.5311C156.884 44.8852 156.104 45.0635 155.229 45.0635C154.289 45.0718 153.366 44.8164 152.564 44.3266C151.748 43.8131 151.083 43.0933 150.636 42.2404C150.171 41.3401 149.939 40.3238 149.939 39.1915V39.1928ZM159.186 39.2327C159.186 38.4558 159.023 37.7799 158.695 37.2076C158.408 36.6636 157.975 36.2102 157.444 35.8983C156.934 35.6012 156.353 35.4462 155.763 35.4494C155.161 35.4494 154.6 35.599 154.081 35.8983C153.561 36.1851 153.138 36.614 152.809 37.1876C152.495 37.7463 152.338 38.4147 152.338 39.1915C152.338 39.9696 152.495 40.6505 152.809 41.2366C153.138 41.8239 153.561 42.274 154.081 42.5883C154.614 42.8876 155.175 43.0372 155.763 43.0372C156.364 43.0372 156.924 42.8876 157.444 42.5883C157.975 42.2764 158.408 41.823 158.695 41.279C159.023 40.6929 159.186 40.0108 159.186 39.2339V39.2327ZM166.954 35.2648C167.35 34.7461 167.89 34.3096 168.574 33.9555C169.256 33.6001 170.029 33.423 170.89 33.423C171.875 33.423 172.77 33.6687 173.576 34.1587C174.399 34.6379 175.068 35.3407 175.505 36.1851C175.969 37.0579 176.201 38.0605 176.201 39.1915C176.201 40.3238 175.969 41.3401 175.505 42.2404C175.066 43.0989 174.399 43.8206 173.576 44.3266C172.768 44.8181 171.837 45.073 170.89 45.0623C170.029 45.0623 169.264 44.8927 168.594 44.551C167.965 44.2289 167.407 43.7836 166.954 43.2417V50.2385H164.615V33.6076H166.954V35.2648ZM173.823 39.1928C173.823 38.4147 173.659 37.7463 173.331 37.1876C173.044 36.6421 172.601 36.1935 172.059 35.8983C171.549 35.6011 170.968 35.4461 170.378 35.4494C169.788 35.4498 169.208 35.6046 168.696 35.8983C168.176 36.1975 167.753 36.634 167.425 37.2076C167.11 37.7812 166.954 38.4546 166.954 39.2327C166.954 40.0108 167.11 40.6916 167.425 41.2777C167.753 41.8513 168.176 42.2878 168.696 42.587C169.208 42.8812 169.787 43.0364 170.378 43.0372C170.979 43.0372 171.54 42.8876 172.059 42.5883C172.601 42.2654 173.042 41.7976 173.331 41.2378C173.659 40.6517 173.823 39.9696 173.823 39.1928Z" fill="#1F2226"/>
<path d="M28.0215 25.042L53.209 42.1979L46.979 51.3843L21.7915 34.0925L28.0215 25.042Z" fill="url(#sushiswappaint0_linear_919:1795)"/>
<path d="M53.2086 42.198C51.0411 45.3055 43.7286 44.0897 36.8223 39.2265C29.7811 34.498 25.9898 28.1484 28.0211 25.0422C30.1873 21.9347 37.4998 23.1505 44.4061 28.0137C51.4473 32.6063 55.2398 39.0906 53.2086 42.198Z" fill="url(#sushiswappaint1_linear_919:1795)"/>
<path d="M46.9788 51.2485C44.8125 54.3559 37.5 53.1401 30.5938 48.277C23.6875 43.4138 19.76 37.2001 21.9275 33.958C24.0938 30.8505 31.4063 32.0663 38.3125 36.9295C45.2188 41.7927 49.01 48.1423 46.9788 51.2485Z" fill="url(#sushiswappaint2_linear_919:1795)"/>
<path d="M53.2085 42.1981L46.9785 51.3845C44.8122 54.4907 37.4997 53.1403 30.5935 48.4117C29.2721 47.4966 28.0062 46.5044 26.8022 45.4402C27.7497 45.3055 28.9685 44.7643 30.1872 43.4139C32.3535 41.1169 33.4372 40.577 34.3847 40.7117C35.3335 40.7117 36.416 41.6581 38.1772 43.9538C39.9372 46.2507 42.3747 46.9266 43.8647 45.7108C43.9997 45.5749 44.1347 45.5749 44.271 45.4402C45.4897 44.495 45.896 44.0897 48.1972 39.7665C48.7397 38.6853 50.6347 36.9296 53.2085 37.7401C53.8847 39.4959 53.8847 40.9823 53.2085 42.1981Z" fill="#0E0F23"/>
<path fill-rule="evenodd" clip-rule="evenodd" d="M52.2614 41.6581C50.3651 44.359 43.7301 43.0085 37.3651 38.5506C30.8651 34.0927 27.0739 28.4189 28.9689 25.7167C30.8651 23.0158 37.5001 24.3663 43.8651 28.8242C50.2301 33.2821 54.0214 38.9559 52.2614 41.6581ZM46.3026 37.6054C45.3539 38.9559 42.1051 38.28 38.8539 36.119C35.7401 33.958 33.8439 31.1211 34.7914 29.7694C35.7401 28.4189 38.9901 29.0948 42.2401 31.2558C45.3539 33.4168 47.2501 36.2537 46.3026 37.6054Z" fill="white"/>
<path d="M27.4788 28.1482C27.4788 28.0135 27.3438 27.8789 27.2088 28.0135C27.0725 28.1482 26.9375 28.1482 26.9375 28.2841C27.0725 28.6894 27.2088 28.9588 27.2088 29.2293C27.2088 29.364 27.3438 29.4999 27.4788 29.364C27.615 29.364 27.75 29.2293 27.615 29.0947C27.615 28.8241 27.615 28.5535 27.4788 28.1482ZM28.1563 30.3105C28.1563 30.1746 28.0213 30.0399 27.885 30.1746C27.75 30.3105 27.75 30.3105 27.75 30.4451C29.24 33.822 32.3538 37.4693 36.4163 40.1715C36.5525 40.3062 36.6875 40.1715 36.8225 40.1715C36.9588 40.0369 36.8225 39.9009 36.8225 39.7663C32.625 37.0641 29.6463 33.5526 28.1563 30.3105ZM44.5413 43.5483C44.4062 43.5483 44.2713 43.5483 44.2713 43.6843C44.2713 43.8189 44.2713 43.9536 44.4063 43.9536C44.8125 44.0895 45.3538 44.2242 45.76 44.3589C45.8963 44.3589 46.0313 44.3589 46.0313 44.2242C46.0313 44.0895 46.0312 43.9536 45.8962 43.9536C45.49 43.8189 44.9475 43.6843 44.5413 43.5483ZM46.9788 44.0895C46.9088 44.0945 46.8429 44.1244 46.7933 44.1739C46.7437 44.2234 46.7137 44.2891 46.7088 44.3589C46.7088 44.4948 46.8438 44.6295 46.9788 44.6295C48.0625 44.7641 49.2812 44.9001 50.2287 44.7641C50.2989 44.7595 50.3651 44.7297 50.4149 44.6802C50.4648 44.6306 50.495 44.5648 50.5 44.4948C50.4953 44.4246 50.4652 44.3584 50.4153 44.3087C50.3655 44.2589 50.2991 44.2289 50.2287 44.2242C49.1462 44.3589 48.0625 44.2242 46.9788 44.0895Z" fill="white"/>
<defs>
<linearGradient id="sushiswappaint0_linear_919:1795" x1="32.9565" y1="22.6017" x2="37.928" y2="39.7191" gradientUnits="userSpaceOnUse">
<stop stop-color="#03B8FF"/>
<stop offset="1" stop-color="#FA52A0"/>
</linearGradient>
<linearGradient id="sushiswappaint1_linear_919:1795" x1="37.0686" y1="21.4073" x2="42.0413" y2="38.5247" gradientUnits="userSpaceOnUse">
<stop stop-color="#03B8FF"/>
<stop offset="1" stop-color="#FA52A0"/>
</linearGradient>
<linearGradient id="sushiswappaint2_linear_919:1795" x1="28.855" y1="23.7939" x2="33.8277" y2="40.9113" gradientUnits="userSpaceOnUse">
<stop stop-color="#03B8FF"/>
<stop offset="1" stop-color="#FA52A0"/>
</linearGradient>
</defs>
</svg>
