<svg width="197" height="76" viewBox="0 0 197 76" fill="none" xmlns="http://www.w3.org/2000/svg">
<path d="M74.0187 34.8096H69.8563V32.3618H81.19V34.8096H77.0275V45.3403H74.0187V34.8096ZM84.0413 36.6826C84.3888 36.2 84.8537 35.8346 85.435 35.5877C86.03 35.3408 86.71 35.2174 87.4788 35.2174V37.8872C87.2625 37.8679 87.0458 37.8555 86.8288 37.8497C85.9988 37.8497 85.3487 38.0842 84.8775 38.5543C84.4062 39.0119 84.1712 39.704 84.1712 40.6305V45.3403H81.2725V35.3645H84.0413V36.6826ZM98.2312 35.3658V45.3403H95.4812V44.1532C95.1014 44.5828 94.6322 44.9245 94.1063 45.1545C93.5582 45.3802 92.9704 45.4939 92.3775 45.4887C91.065 45.4887 90.025 45.1109 89.2562 44.3577C88.4887 43.6033 88.105 42.4847 88.105 41.0021V35.3658H91.0025V40.5756C91.0025 42.1817 91.6775 42.986 93.0275 42.986C93.7213 42.986 94.2787 42.7628 94.7 42.3177C95.1213 41.8613 95.3325 41.1879 95.3325 40.2976V35.3645H98.2312V35.3658ZM103.165 45.4887C102.334 45.4887 101.522 45.389 100.73 45.1919C99.9375 44.9812 99.305 44.7218 98.835 44.4126L99.8013 42.3364C100.248 42.6207 100.786 42.8563 101.418 43.0409C102.023 43.2103 102.648 43.2975 103.276 43.3003C104.501 43.3003 105.115 42.9985 105.115 42.3925C105.115 42.1082 104.948 41.9037 104.615 41.7815C104.279 41.6568 103.765 41.552 103.071 41.4647C102.387 41.3699 101.711 41.2278 101.046 41.0395C100.516 40.88 100.035 40.5861 99.6525 40.1866C99.2687 39.7776 99.0775 39.1977 99.0775 38.4433C99.0775 37.8136 99.2562 37.2574 99.615 36.7749C99.9875 36.2798 100.52 35.897 101.214 35.6251C101.92 35.3533 102.749 35.2174 103.704 35.2174C104.411 35.2173 105.115 35.298 105.804 35.458C106.509 35.6077 107.091 35.8172 107.55 36.089L106.584 38.1453C105.705 37.651 104.712 37.3952 103.704 37.4033C103.084 37.4033 102.62 37.4906 102.31 37.6627C102 37.8373 101.845 38.0592 101.845 38.3311C101.845 38.6403 102.012 38.8548 102.347 38.9795C102.681 39.1042 103.214 39.2202 103.945 39.3324C104.762 39.4683 105.431 39.6155 105.951 39.7763C106.473 39.926 106.924 40.2028 107.307 40.6118C107.692 41.0196 107.884 41.5882 107.884 42.3164C107.884 42.9349 107.699 43.4848 107.326 43.9662C106.955 44.4487 106.41 44.8266 105.691 45.0984C104.985 45.3578 104.143 45.4875 103.165 45.4875V45.4887ZM115.005 44.8577C114.686 45.0838 114.327 45.2476 113.946 45.3403C113.538 45.4388 113.104 45.4887 112.646 45.4887C111.456 45.4887 110.534 45.1857 109.878 44.5797C109.232 43.9749 108.91 43.0833 108.91 41.9111V37.8136H107.369V35.5877H108.91V33.1599H111.81V35.5877H114.299V37.8136H111.809V41.8725C111.809 42.294 111.915 42.6207 112.125 42.8563C112.348 43.0783 112.658 43.1893 113.054 43.1893C113.512 43.1893 113.903 43.0646 114.225 42.8189L115.005 44.8577ZM139.527 32.3631L135.272 45.3403H132.04L129.178 36.5516L126.224 45.3403H123.009L118.737 32.3618H121.859L124.794 41.4834L127.86 32.3618H130.647L133.62 41.5582L136.649 32.3618H139.529L139.527 32.3631ZM143.176 35.2174C144.725 35.2174 145.915 35.5877 146.744 36.3297C147.574 37.0592 147.989 38.1652 147.989 39.6479V45.3403H145.276V44.0983C144.731 45.0248 143.716 45.4887 142.229 45.4887C141.461 45.4887 140.793 45.359 140.223 45.0984C139.665 44.839 139.237 44.4812 138.94 44.0235C138.641 43.5595 138.486 43.0176 138.495 42.466C138.495 41.5395 138.841 40.8101 139.535 40.2789C140.241 39.7476 141.325 39.4808 142.786 39.4808H145.091C145.091 38.8511 144.899 38.3685 144.515 38.0343C144.131 37.6889 143.555 37.5156 142.786 37.5156C142.254 37.5156 141.728 37.6028 141.208 37.7762C140.737 37.9176 140.296 38.1437 139.906 38.4433L138.866 36.4232C139.46 36.0172 140.12 35.716 140.816 35.5329C141.585 35.3224 142.379 35.2163 143.176 35.2174ZM142.954 43.5409C143.45 43.5409 143.889 43.43 144.274 43.208C144.657 42.9736 144.93 42.6344 145.091 42.188V41.1679H143.103C141.914 41.1679 141.319 41.5582 141.319 42.3364C141.313 42.5081 141.349 42.6786 141.424 42.8335C141.498 42.9885 141.609 43.1233 141.746 43.2267C142.044 43.4362 142.446 43.5409 142.954 43.5409ZM149.497 31.5825H152.396V45.3403H149.497V31.5837V31.5825ZM153.971 31.5825H156.87V45.3403H153.971V31.5837V31.5825ZM168.238 40.3898C168.238 40.4272 168.219 40.6866 168.182 41.1679H160.62C160.756 41.7864 161.077 42.2753 161.586 42.6331C162.094 42.9923 162.725 43.1706 163.481 43.1706C164.001 43.1706 164.46 43.0958 164.856 42.9486C165.265 42.7865 165.643 42.5409 165.989 42.2067L167.531 43.8751C166.59 44.9513 165.215 45.4887 163.406 45.4887C162.279 45.4887 161.283 45.2717 160.415 44.8403C159.548 44.3939 158.879 43.7828 158.409 43.0035C157.938 42.2254 157.702 41.3413 157.702 40.3524C157.702 39.376 157.931 38.4994 158.39 37.7201C158.846 36.9437 159.508 36.3083 160.304 35.8845C161.121 35.4393 162.031 35.2174 163.035 35.2174C164.014 35.2174 164.9 35.4269 165.693 35.8471C166.476 36.259 167.122 36.8906 167.55 37.6639C168.009 38.4433 168.238 39.3523 168.238 40.3898ZM163.054 37.4046C162.398 37.4046 161.846 37.5904 161.4 37.962C160.954 38.3323 160.681 38.8386 160.582 39.482H165.506C165.408 38.8511 165.135 38.351 164.689 37.9794C164.242 37.5966 163.697 37.4058 163.054 37.4058V37.4046ZM175.5 44.8577C175.181 45.0838 174.822 45.2476 174.441 45.3403C174.033 45.4388 173.599 45.4887 173.14 45.4887C171.951 45.4887 171.029 45.1857 170.371 44.5797C169.728 43.9749 169.406 43.0833 169.406 41.9111V37.8136H167.864V35.5877H169.406V33.1599H172.304V35.5877H174.794V37.8136H172.304V41.8725C172.304 42.294 172.41 42.6207 172.62 42.8563C172.842 43.0783 173.152 43.1893 173.549 43.1893C174.007 43.1893 174.398 43.0646 174.72 42.8189L175.5 44.8577ZM48.6675 19.4407H36.075C28.8537 19.4407 23 25.2815 23 32.4853V45.0535C23 52.256 28.8537 58.0969 36.0737 58.0969H48.6675C55.8875 58.0969 61.7425 52.256 61.7425 45.0523V32.484C61.7412 25.2815 55.8875 19.4407 48.6663 19.4407H48.6675Z" fill="#3375BB"/>
<path d="M23.4023 38.8798C23.4023 28.3654 31.9448 19.8423 42.4823 19.8423C53.0198 19.8423 61.5611 28.3654 61.5611 38.8798C61.5611 49.3943 53.0198 57.9174 42.4823 57.9174C31.9448 57.9174 23.4023 49.3931 23.4023 38.8798Z" fill="#3375BB"/>
<path fill-rule="evenodd" clip-rule="evenodd" d="M41.7124 26.5684C41.9313 26.3862 42.2074 26.2864 42.4924 26.2864C42.7775 26.2864 43.0535 26.3862 43.2724 26.5684C46.5824 29.3267 50.3574 29.3055 51.8174 29.2967H52.0187C52.1802 29.2967 52.34 29.3287 52.489 29.3909C52.6379 29.4532 52.773 29.5443 52.8863 29.6591C52.9996 29.7738 53.0889 29.9099 53.1489 30.0595C53.209 30.209 53.2387 30.3689 53.2362 30.53C53.1674 35.1014 52.9837 38.3647 52.6237 40.7552C52.2637 43.1456 51.7112 44.7829 50.8212 46.0174C49.9249 47.2606 48.7724 47.9664 47.5462 48.6423L46.8962 48.9977C45.8187 49.58 44.6212 50.2272 43.2012 51.2435C42.9944 51.3914 42.7463 51.4709 42.4918 51.4709C42.2373 51.4709 41.9893 51.3914 41.7824 51.2435C40.3637 50.2284 39.1687 49.5813 38.0937 48.9989C37.8749 48.8809 37.6565 48.762 37.4387 48.6423C36.2137 47.9664 35.0637 47.2594 34.1687 46.0174C33.2812 44.7829 32.7312 43.1444 32.3724 40.7552C32.0124 38.3635 31.8299 35.1014 31.7599 30.53C31.7573 30.3687 31.7868 30.2085 31.8469 30.0588C31.907 29.909 31.9964 29.7727 32.1098 29.6578C32.2233 29.5429 32.3585 29.4517 32.5077 29.3895C32.6569 29.3272 32.817 29.2953 32.9787 29.2955L33.1787 29.298C34.6262 29.3055 38.4012 29.3267 41.7112 26.5684H41.7124ZM34.2174 31.7184C34.2999 35.6152 34.4774 38.3772 34.7799 40.3948C35.1149 42.6194 35.5849 43.8177 36.1474 44.5996C36.7037 45.3727 37.4324 45.8615 38.6174 46.5162L39.2287 46.8479C40.1412 47.3417 41.2374 47.9353 42.4912 48.777C43.7487 47.934 44.8474 47.3405 45.7599 46.8466C45.9724 46.7319 46.1762 46.6222 46.3687 46.5162C47.5562 45.8615 48.2862 45.3715 48.8437 44.5984C49.4074 43.8165 49.8799 42.6182 50.2149 40.3948C50.5187 38.3785 50.6974 35.6152 50.7799 31.7196C48.9049 31.6585 45.6037 31.2732 42.4924 29.0386C39.3849 31.2707 36.0874 31.6573 34.2174 31.7196V31.7184Z" fill="white"/>
</svg>
